<?xml version="1.0" encoding="UTF-8"?>
<svg version="1.1" xmlns="http://www.w3.org/2000/svg" width="500" height="500">
<path d="M0 0 C3.20147489 2.53450095 5.7632973 5.06503685 7 9 C7.56429734 16.1101465 7.56429734 16.1101465 5.375 19.5625 C3.62686832 22.05694182 3.62686832 22.05694182 4.625 25.5 C5.84190927 28.59758724 7.15853616 31.23780424 9 34 C9.52207031 33.80664062 10.04414063 33.61328125 10.58203125 33.4140625 C20.07818861 30.05465131 29.37042847 28.6993006 39.41821289 28.70947266 C40.88417908 28.69939682 40.88417908 28.69939682 42.37976074 28.68911743 C45.57744584 28.67028324 48.7749193 28.66622021 51.97265625 28.6640625 C54.22309959 28.65762299 56.47354211 28.65089381 58.72398376 28.64389038 C63.43181292 28.63195288 68.1395689 28.62820577 72.84741211 28.62939453 C78.83279553 28.62959717 84.81770124 28.60233538 90.80297184 28.56785011 C95.45059799 28.54543315 100.09811203 28.54156154 104.74578667 28.54261398 C106.94984006 28.54027867 109.15389756 28.53157435 111.3578968 28.51594925 C142.96930154 28.3128677 142.96930154 28.3128677 153 35 C153.19529297 34.15115234 153.19529297 34.15115234 153.39453125 33.28515625 C154.2266246 30.14467489 155.41345779 27.15339 156.57421875 24.12109375 C156.71472656 23.42113281 156.85523438 22.72117188 157 22 C156.01 20.515 156.01 20.515 155 19 C154.2654049 14.16862452 153.91163163 9.18424272 156.1328125 4.7265625 C159.17415411 0.95275119 162.12259499 -1.23491686 167 -2 C171.7306012 -2.12785409 175.6224772 -1.70687586 179.4375 1.25 C183.51711911 5.62812782 184.43165314 8.98310526 184.25 15.01171875 C183.6919489 19.44996888 181.76752258 22.25267538 178.625 25.3125 C175.97689453 27.01485352 174.10185729 27.64550202 171 28 C170.8453125 28.99 170.8453125 28.99 170.6875 30 C169.80786436 33.83841009 168.43030104 37.33096691 167 41 C167.61746094 41.47308594 168.23492187 41.94617188 168.87109375 42.43359375 C174.96572336 47.19241413 180.94595168 52.11581814 186 58 C186 58.66 186 59.32 186 60 C186.66 60 187.32 60 188 60 C189.54515684 62.2221116 190.94471193 64.42113942 192.3125 66.75 C192.71476807 67.4294165 193.11703613 68.10883301 193.53149414 68.80883789 C202.86828188 84.89356821 205.14306784 99.90831212 205.203125 118.28125 C205.20736607 119.29616768 205.20736607 119.29616768 205.21169281 120.33158875 C205.22660246 123.91735204 205.23588195 127.50307602 205.24023438 131.08886719 C205.24460648 134.01542718 205.25845994 136.94169029 205.28125 139.86816406 C205.57707509 178.66807656 205.57707509 178.66807656 198.75 193.375 C198.45134033 194.02364014 198.15268066 194.67228027 197.8449707 195.34057617 C195.06715789 201.2117799 191.69720465 206.66392891 188 212 C187.34 212.99 186.68 213.98 186 215 C185.34 215 184.68 215 184 215 C183.773125 215.556875 183.54625 216.11375 183.3125 216.6875 C181.62449964 219.66159588 179.53323483 221.72008865 177 224 C176.34 224 175.68 224 175 224 C175 224.66 175 225.32 175 226 C174.01 226.66 173.02 227.32 172 228 C172.06058594 228.80107178 172.12117187 229.60214355 172.18359375 230.42749023 C172.45917638 234.09724391 172.72962625 237.76735902 173 241.4375 C173.14308594 243.32758789 173.14308594 243.32758789 173.2890625 245.25585938 C174.76662158 265.46675683 174.76662158 265.46675683 172 271 C168.37113381 274.88807092 165.44913208 276.80581026 160.1015625 277.21875 C156.29657119 276.82269142 153.20826688 274.98810155 150 273 C150 272.34 150 271.68 150 271 C148.02 270.34 146.04 269.68 144 269 C144 268.34 144 267.68 144 267 C143.27095459 266.73429199 142.54190918 266.46858398 141.79077148 266.19482422 C139.0080857 265.00346176 136.8090925 263.63486493 134.34765625 261.8828125 C133.48849609 261.27566406 132.62933594 260.66851562 131.74414062 260.04296875 C130.41672852 259.09357422 130.41672852 259.09357422 129.0625 258.125 C127.30378272 256.87704407 125.54467766 255.62963441 123.78515625 254.3828125 C123.01051025 253.82996582 122.23586426 253.27711914 121.43774414 252.70751953 C120.63328857 252.14403809 119.82883301 251.58055664 119 251 C118.11373428 250.31571426 117.22746857 249.63142853 116.31434631 248.92640686 C112.39172717 246.64645187 110.04437272 246.49031992 105.53271484 246.4699707 C104.80984283 246.46123932 104.08697083 246.45250793 103.3421936 246.44351196 C100.96485213 246.41922411 98.58838698 246.42254326 96.2109375 246.42578125 C94.54430687 246.4133199 92.87768932 246.39898121 91.21109009 246.38285828 C86.82628684 246.34486893 82.44170886 246.32965862 78.0567627 246.32006836 C71.06130125 246.30032606 64.06601108 246.24296366 57.0707283 246.19130516 C54.64482305 246.17614914 52.2190042 246.16880149 49.7930603 246.16316223 C26.41336172 246.07490304 6.33093813 241.69274784 -13 228 C-13 227.34 -13 226.68 -13 226 C-13.58265625 225.7421875 -14.1653125 225.484375 -14.765625 225.21875 C-17.1802903 223.90165983 -18.81740177 222.44911616 -20.75 220.5 C-21.36359375 219.8915625 -21.9771875 219.283125 -22.609375 218.65625 C-24 217 -24 217 -24 215 C-24.66 215 -25.32 215 -26 215 C-37.43887386 200.53096088 -44.01984546 182.61085266 -44.17700195 164.15698242 C-44.18357315 163.51187714 -44.19014435 162.86677185 -44.19691467 162.20211792 C-44.21646891 160.0865665 -44.228277 157.97108584 -44.23828125 155.85546875 C-44.24235678 155.12310816 -44.2464323 154.39074757 -44.25063133 153.63619423 C-44.27142765 149.75103676 -44.28575065 145.8659138 -44.29516602 141.98071289 C-44.3039774 138.80473358 -44.32474392 135.62919871 -44.35668945 132.45336914 C-44.76582618 90.84426579 -44.76582618 90.84426579 -36.25 75.5625 C-35.90638428 74.914021 -35.56276855 74.26554199 -35.20874023 73.59741211 C-29.97609602 63.9698711 -23.4304489 55.08367594 -15 48 C-14.34 48 -13.68 48 -13 48 C-13 47.34 -13 46.68 -13 46 C-7.58823529 42 -7.58823529 42 -5 42 C-5.26554687 41.46890625 -5.53109375 40.9378125 -5.8046875 40.390625 C-7.40234375 37.1953125 -7.40234375 37.1953125 -9 34 C-9.37382812 33.31421875 -9.74765625 32.6284375 -10.1328125 31.921875 C-11 30 -11 30 -11 27 C-11.78375 26.855625 -12.5675 26.71125 -13.375 26.5625 C-16 26 -16 26 -18 25 C-18 24.34 -18 23.68 -18 23 C-18.66 23 -19.32 23 -20 23 C-22.45281911 19.32077133 -22.26823919 17.37740649 -22.25 13 C-22.25515625 11.7625 -22.2603125 10.525 -22.265625 9.25 C-22 6 -22 6 -20 3 C-19.34 3 -18.68 3 -18 3 C-18 2.34 -18 1.68 -18 1 C-11.51620122 -2.12182904 -6.81892755 -2.60551105 0 0 Z M-6 69 C-7.29589989 71.13725644 -7.29589989 71.13725644 -8 73 C-8.66 73 -9.32 73 -10 73 C-17.48600193 82.40935759 -23.0564358 94.80858141 -23.20874023 106.86376953 C-23.21852402 107.55866486 -23.2283078 108.25356018 -23.23838806 108.96951294 C-23.26833529 111.27392694 -23.28974489 113.57828189 -23.30859375 115.8828125 C-23.31516558 116.67525234 -23.3217374 117.46769218 -23.32850838 118.28414536 C-23.36112483 122.4923092 -23.38555062 126.7004478 -23.4050293 130.90869141 C-23.42271267 134.36155204 -23.45731584 137.81357583 -23.50756836 141.26611328 C-23.56850004 145.45833439 -23.59860564 149.64979121 -23.60820198 153.84243393 C-23.61664859 155.42497529 -23.63519137 157.00750236 -23.6649456 158.58978653 C-23.95537715 174.93701196 -19.84501444 190.32305744 -9 203 C-8.34 203 -7.68 203 -7 203 C-7 203.66 -7 204.32 -7 205 C-6.34 205 -5.68 205 -5 205 C-5 205.66 -5 206.32 -5 207 C10.7668515 220.97770523 27.3332553 225.48961407 47.98345757 225.22729874 C50.80683135 225.19460927 53.629342 225.18634046 56.45289612 225.18502808 C64.47168407 225.17946323 72.48975707 225.15046304 80.50805664 225.05859375 C85.43713621 225.00385535 90.3646935 224.99357591 95.29402351 225.01073837 C97.15618997 225.00881113 99.0184216 224.99061392 100.88024712 224.95492935 C113.80047134 224.71424589 121.14616037 226.34575669 131 235 C133.68356242 237.38687812 133.68356242 237.38687812 137 238 C137 238.66 137 239.32 137 240 C139.97 240.99 139.97 240.99 143 242 C143 242.66 143 243.32 143 244 C145.24883311 245.59395916 145.24883311 245.59395916 148 247.125 C148.928125 247.66382813 149.85625 248.20265625 150.8125 248.7578125 C151.534375 249.16773438 152.25625 249.57765625 153 250 C153.10321762 245.04555424 152.92307665 240.36071237 152.2265625 235.4453125 C150.77028662 219.72757625 150.77028662 219.72757625 153 214 C154.64232772 213.27544365 156.31624835 212.62225605 158 212 C160.45268373 210.49182802 162.85657776 208.92722691 165 207 C165 206.34 165 205.68 165 205 C165.66 205 166.32 205 167 205 C167 204.34 167 203.68 167 203 C167.66 203 168.32 203 169 203 C181.53082834 188.1650143 185.31526474 171.43488991 185.30078125 152.4765625 C185.30506638 151.21339203 185.3093515 149.95022156 185.31376648 148.64877319 C185.31947953 145.99129076 185.32098162 143.33420061 185.31567383 140.67675781 C185.30988734 137.30952717 185.32681918 133.94284807 185.3500185 130.57570839 C185.368488 127.31349865 185.36456674 124.05131494 185.36328125 120.7890625 C185.37709587 119.0056395 185.37709587 119.0056395 185.39118958 117.18618774 C185.30378735 101.12325561 180.90035523 85.8265686 171 73 C170.34 73 169.68 73 169 73 C168.78214844 72.43539062 168.56429687 71.87078125 168.33984375 71.2890625 C166.56266536 68.25283353 164.31128365 66.55796497 161.5625 64.375 C160.59441406 63.59898437 159.62632812 62.82296875 158.62890625 62.0234375 C154.75845733 58.82582932 154.75845733 58.82582932 150 58 C150 57.34 150 56.68 150 56 C147.27161565 55.18479365 144.54235583 54.37275157 141.8125 53.5625 C141.04357422 53.33240234 140.27464844 53.10230469 139.48242188 52.86523438 C138.35610352 52.53168945 138.35610352 52.53168945 137.20703125 52.19140625 C136.5210083 51.98717041 135.83498535 51.78293457 135.12817383 51.57250977 C129.66232942 50.10211799 124.59796027 49.84091666 118.96557617 49.82299805 C117.61314819 49.81314125 117.61314819 49.81314125 116.23339844 49.80308533 C113.25325423 49.78340052 110.27316052 49.77169548 107.29296875 49.76171875 C106.2694311 49.75764322 105.24589344 49.7535677 104.19133949 49.74936867 C98.76533843 49.72852046 93.3393625 49.7142178 87.91333008 49.70483398 C82.34684649 49.69382025 76.78076823 49.65947516 71.21442699 49.61966228 C66.90315585 49.59332687 62.5919784 49.58512685 58.28063393 49.58155251 C56.23121745 49.57672387 54.18180408 49.56521828 52.13246727 49.54651451 C30.08831355 49.35795695 10.40231651 52.83284215 -6 69 Z " fill="#F55F3E" transform="translate(169,112)"/>
<path d="M0 0 C1.63671875 1.53515625 1.63671875 1.53515625 2.63671875 4.53515625 C3.29671875 4.53515625 3.95671875 4.53515625 4.63671875 4.53515625 C5.31514014 5.92531436 5.97894775 7.32260895 6.63671875 8.72265625 C7.00796875 9.49996094 7.37921875 10.27726562 7.76171875 11.078125 C8.63671875 13.53515625 8.63671875 13.53515625 8.63671875 18.53515625 C2.20171875 19.03015625 2.20171875 19.03015625 -4.36328125 19.53515625 C-4.69328125 20.85515625 -5.02328125 22.17515625 -5.36328125 23.53515625 C-3.49840995 25.40002755 -0.37018691 24.88256199 2.13671875 25.03515625 C8.52560764 25.42404514 8.52560764 25.42404514 9.63671875 26.53515625 C9.73495812 28.19944676 9.76645506 29.86797556 9.76171875 31.53515625 C9.76558594 32.89640625 9.76558594 32.89640625 9.76953125 34.28515625 C9.63671875 36.53515625 9.63671875 36.53515625 8.63671875 37.53515625 C6.66162002 37.74459235 4.68100193 37.90319447 2.69921875 38.03515625 C-1.4849554 38.21250709 -1.4849554 38.21250709 -5.36328125 39.53515625 C-4.86572033 42.29157041 -4.86572033 42.29157041 -3.36328125 44.53515625 C-1.18035351 44.76997318 1.00875049 44.94878948 3.19921875 45.09765625 C4.39675781 45.18144531 5.59429687 45.26523438 6.828125 45.3515625 C8.21837891 45.44244141 8.21837891 45.44244141 9.63671875 45.53515625 C9.66360026 47.18090191 9.68305998 48.82677038 9.69921875 50.47265625 C9.71082031 51.38917969 9.72242188 52.30570313 9.734375 53.25 C9.63671875 55.53515625 9.63671875 55.53515625 8.63671875 56.53515625 C6.68255718 56.7451557 4.72271576 56.90348259 2.76171875 57.03515625 C-0.55046313 57.25862876 -3.20704321 57.4830769 -6.36328125 58.53515625 C-5.85136913 60.6058148 -5.85136913 60.6058148 -4.36328125 62.53515625 C-1.25397184 63.24187831 -1.25397184 63.24187831 2.26171875 63.28515625 C4.04449219 63.37023437 4.04449219 63.37023437 5.86328125 63.45703125 C6.77851563 63.4828125 7.69375 63.50859375 8.63671875 63.53515625 C8.317053 71.33500051 7.29654652 77.64902783 1.8046875 83.48046875 C-4.98216549 89.6833669 -11.12515148 92.52118026 -20.36328125 92.53515625 C-26.76017757 91.95362022 -32.43464225 89.72517088 -37.36328125 85.53515625 C-37.36328125 84.87515625 -37.36328125 84.21515625 -37.36328125 83.53515625 C-38.02328125 83.53515625 -38.68328125 83.53515625 -39.36328125 83.53515625 C-44.52707422 76.65009895 -44.47335941 71.90109632 -44.36328125 63.53515625 C-38.42328125 63.04015625 -38.42328125 63.04015625 -32.36328125 62.53515625 C-32.03328125 60.88515625 -31.70328125 59.23515625 -31.36328125 57.53515625 C-38.29328125 57.04015625 -38.29328125 57.04015625 -45.36328125 56.53515625 C-45.36328125 52.90515625 -45.36328125 49.27515625 -45.36328125 45.53515625 C-44.52023438 45.509375 -43.6771875 45.48359375 -42.80859375 45.45703125 C-41.71289062 45.4003125 -40.6171875 45.34359375 -39.48828125 45.28515625 C-37.85246094 45.21554688 -37.85246094 45.21554688 -36.18359375 45.14453125 C-33.25843946 44.84217406 -33.25843946 44.84217406 -31.98046875 42.61328125 C-31.26838066 40.57692396 -31.26838066 40.57692396 -31.36328125 38.53515625 C-38.29328125 38.04015625 -38.29328125 38.04015625 -45.36328125 37.53515625 C-45.36328125 33.57515625 -45.36328125 29.61515625 -45.36328125 25.53515625 C-38.92828125 25.04015625 -38.92828125 25.04015625 -32.36328125 24.53515625 C-32.03328125 22.88515625 -31.70328125 21.23515625 -31.36328125 19.53515625 C-32.03875 19.54675781 -32.71421875 19.55835938 -33.41015625 19.5703125 C-34.74820313 19.58384766 -34.74820313 19.58384766 -36.11328125 19.59765625 C-37.43585938 19.61505859 -37.43585938 19.61505859 -38.78515625 19.6328125 C-41.14516505 19.54341823 -43.10826649 19.20428446 -45.36328125 18.53515625 C-45.07900708 16.95047897 -44.78553307 15.36745055 -44.48828125 13.78515625 C-44.32585937 12.9034375 -44.1634375 12.02171875 -43.99609375 11.11328125 C-43.39531861 8.66567881 -42.58331008 6.72915768 -41.36328125 4.53515625 C-40.70328125 4.53515625 -40.04328125 4.53515625 -39.36328125 4.53515625 C-39.10804688 3.93960938 -38.8528125 3.3440625 -38.58984375 2.73046875 C-35.89592091 -2.09113838 -30.66020452 -5.3603393 -25.42578125 -6.90234375 C-15.89101493 -8.75684643 -7.56279419 -5.63248101 0 0 Z " fill="#04B2B8" transform="translate(238.36328125,189.46484375)"/>
<path d="M0 0 C2.05078125 0.03255208 4.1015625 0.06510417 6.15234375 0.09765625 C6.15234375 0.75765625 6.15234375 1.41765625 6.15234375 2.09765625 C6.81234375 2.09765625 7.47234375 2.09765625 8.15234375 2.09765625 C8.178125 3.19722656 8.20390625 4.29679688 8.23046875 5.4296875 C8.61686896 16.76109841 9.89785418 26.90863613 17.15234375 36.09765625 C17.81234375 36.42765625 18.47234375 36.75765625 19.15234375 37.09765625 C19.15234375 37.75765625 19.15234375 38.41765625 19.15234375 39.09765625 C19.89484375 39.36578125 20.63734375 39.63390625 21.40234375 39.91015625 C24.0434472 41.05063274 25.86803804 42.38442697 28.15234375 44.09765625 C37.27250263 48.24740596 46.88210537 47.59070734 56.19140625 44.3984375 C59.5632703 43.0425177 62.29972551 41.31635933 65.15234375 39.09765625 C65.81234375 39.09765625 66.47234375 39.09765625 67.15234375 39.09765625 C67.15234375 38.43765625 67.15234375 37.77765625 67.15234375 37.09765625 C67.81234375 37.09765625 68.47234375 37.09765625 69.15234375 37.09765625 C69.81234375 35.44765625 70.47234375 33.79765625 71.15234375 32.09765625 C71.81234375 32.09765625 72.47234375 32.09765625 73.15234375 32.09765625 C73.27609375 31.56140625 73.39984375 31.02515625 73.52734375 30.47265625 C74.15234375 28.09765625 74.15234375 28.09765625 75.12109375 25.59765625 C76.47564862 21.00037912 76.86299919 16.48422238 77.27734375 11.72265625 C77.40689453 10.33240234 77.40689453 10.33240234 77.5390625 8.9140625 C77.7498326 6.64242924 77.95407556 4.37040898 78.15234375 2.09765625 C78.81234375 2.09765625 79.47234375 2.09765625 80.15234375 2.09765625 C80.15234375 1.43765625 80.15234375 0.77765625 80.15234375 0.09765625 C82.79234375 0.09765625 85.43234375 0.09765625 88.15234375 0.09765625 C88.15234375 0.75765625 88.15234375 1.41765625 88.15234375 2.09765625 C88.81234375 2.09765625 89.47234375 2.09765625 90.15234375 2.09765625 C91.74437251 19.63148646 91.74437251 19.63148646 89.15234375 27.09765625 C88.89453125 27.90460938 88.63671875 28.7115625 88.37109375 29.54296875 C84.08178099 41.63439352 75.37871219 50.58273538 64.08984375 56.41015625 C59.82887027 58.43533376 55.74925064 60.05290468 51.15234375 61.09765625 C50.82234375 65.71765625 50.49234375 70.33765625 50.15234375 75.09765625 C52.17488281 75.06285156 52.17488281 75.06285156 54.23828125 75.02734375 C56.00129656 75.00858827 57.76431784 74.99038783 59.52734375 74.97265625 C60.41679687 74.95589844 61.30625 74.93914062 62.22265625 74.921875 C63.0734375 74.91542969 63.92421875 74.90898437 64.80078125 74.90234375 C65.58630371 74.89187012 66.37182617 74.88139648 67.18115234 74.87060547 C69.15234375 75.09765625 69.15234375 75.09765625 71.15234375 77.09765625 C71.52734375 80.53515625 71.52734375 80.53515625 71.15234375 84.09765625 C68.32792649 86.8807174 66.25990173 87.47463597 62.35546875 87.48583984 C61.40768555 87.49529633 60.45990234 87.50475281 59.48339844 87.51449585 C58.46665039 87.50842316 57.44990234 87.50235046 56.40234375 87.49609375 C55.35208008 87.49896393 54.30181641 87.50183411 53.21972656 87.50479126 C51.00064555 87.50683146 48.78154654 87.5013047 46.5625 87.48876953 C43.16495569 87.47271584 39.76860104 87.48862032 36.37109375 87.5078125 C34.21484112 87.50583006 32.05858924 87.50198637 29.90234375 87.49609375 C28.8855957 87.50216644 27.86884766 87.50823914 26.82128906 87.51449585 C25.87350586 87.50503937 24.92572266 87.49558289 23.94921875 87.48583984 C22.70156738 87.48225967 22.70156738 87.48225967 21.42871094 87.47860718 C18.57887019 87.00168523 17.20249829 86.11779171 15.15234375 84.09765625 C14.77734375 80.53515625 14.77734375 80.53515625 15.15234375 77.09765625 C17.54921025 74.70078975 18.22262689 74.81484492 21.50390625 74.68359375 C22.3546875 74.64492188 23.20546875 74.60625 24.08203125 74.56640625 C24.97148437 74.53546875 25.8609375 74.50453125 26.77734375 74.47265625 C27.67453125 74.43398438 28.57171875 74.3953125 29.49609375 74.35546875 C31.7144998 74.26106849 33.93339388 74.1782682 36.15234375 74.09765625 C36.48234375 69.80765625 36.81234375 65.51765625 37.15234375 61.09765625 C35.66734375 60.85015625 34.18234375 60.60265625 32.65234375 60.34765625 C27.62233106 59.35020331 23.59767547 57.58238315 19.15234375 55.09765625 C17.82182328 54.42539328 16.48919187 53.75724651 15.15234375 53.09765625 C15.15234375 52.43765625 15.15234375 51.77765625 15.15234375 51.09765625 C14.53359375 50.78828125 13.91484375 50.47890625 13.27734375 50.16015625 C11.90234375 49.47265625 10.52734375 48.78515625 9.15234375 48.09765625 C9.15234375 47.43765625 9.15234375 46.77765625 9.15234375 46.09765625 C8.49234375 46.09765625 7.83234375 46.09765625 7.15234375 46.09765625 C5.73437291 44.12273296 4.4610227 42.17775298 3.21484375 40.09765625 C2.85511475 39.50259277 2.49538574 38.9075293 2.12475586 38.29443359 C-3.92462577 28.09069072 -5.79854368 17.92734053 -4.84765625 6.09765625 C-2.83467126 0.14982406 -2.83467126 0.14982406 0 0 Z " fill="#06AFB4" transform="translate(176.84765625,241.90234375)"/>
<path d="M0 0 C3.76681767 0.13574118 5.58005259 1.18730383 8.3125 3.75 C24.91868668 22.25216862 30.93148992 44.37511426 29.62939453 68.84960938 C28.16208738 84.85762061 19.92699574 101.73884388 9.375 113.625 C8.715 113.625 8.055 113.625 7.375 113.625 C7.375 114.285 7.375 114.945 7.375 115.625 C6.715 115.625 6.055 115.625 5.375 115.625 C5.375 116.285 5.375 116.945 5.375 117.625 C2.98783126 119.12803217 1.66434794 119.63911453 -1.1875 119.5 C-4.28114358 118.38946128 -5.21495184 117.60176834 -6.625 114.625 C-6.75857122 111.08536259 -6.53691842 108.70681008 -4.19921875 105.93359375 C-2.99435793 104.78216356 -1.77475635 103.64601506 -0.54296875 102.5234375 C3.38285433 98.63759225 6.62732987 93.8680104 8.375 88.625 C9.035 88.625 9.695 88.625 10.375 88.625 C10.5090625 87.89796875 10.643125 87.1709375 10.78125 86.421875 C11.33197331 83.82767837 12.07105426 81.39938962 12.875 78.875 C18.05859209 59.9280772 14.98863194 40.59540517 5.375 23.625 C4.8284375 22.90957031 4.281875 22.19414062 3.71875 21.45703125 C2.375 19.625 2.375 19.625 2.375 17.625 C1.715 17.625 1.055 17.625 0.375 17.625 C-3.3177022 13.94048561 -6.59049214 10.52293227 -6.6875 5.1875 C-5.06196061 1.26708148 -4.24785042 0.732388 0 0 Z " fill="#D28D28" transform="translate(306.625,185.375)"/>
<path d="M0 0 C3.15023533 -0.50628782 4.96063771 -0.74560165 8 0 C17.45556162 7.46764647 23.38524001 20.23532004 25 32 C25.74640876 45.76377756 23.53512683 55.51427497 18 68 C17.34 68 16.68 68 16 68 C15.7525 68.721875 15.505 69.44375 15.25 70.1875 C13.61601177 73.86397353 11.67796581 77.16101709 8 79 C6.125 79.16796875 6.125 79.16796875 4 79.1875 C2.948125 79.20876953 2.948125 79.20876953 1.875 79.23046875 C0 79 0 79 -2 77 C-2.26991906 74.31160615 -2.08737357 71.70858064 -2 69 C-1.34 69 -0.68 69 0 69 C0 68.34 0 67.68 0 67 C0.66 67 1.32 67 2 67 C2.2784375 66.27296875 2.556875 65.5459375 2.84375 64.796875 C3.92680093 62.1770626 5.1619628 59.7465816 6.5 57.25 C12.07050248 46.17472368 11.96361949 36.63011613 8.13671875 24.98828125 C6.29595476 20.14915943 3.80254484 16.83902415 0.25 13.125 C-2.7147541 9.00728597 -2.42719367 6.9554466 -2 2 C-1.34 2 -0.68 2 0 2 C0 1.34 0 0.68 0 0 Z " fill="#E3951E" transform="translate(285,205)"/>
<path d="M0 0 C1.67784405 2.51676607 2.56514063 4.26300266 3.5 7.0625 C3.7371875 7.75472656 3.974375 8.44695312 4.21875 9.16015625 C10.33860973 31.40584636 7.57829928 52.52927504 -3.09375 72.75 C-6.02380953 77.74551132 -9.14706359 82.65991071 -13 87 C-13.66 87 -14.32 87 -15 87 C-15 87.66 -15 88.32 -15 89 C-15.66 89 -16.32 89 -17 89 C-17 89.66 -17 90.32 -17 91 C-19.38716874 92.50303217 -20.71065206 93.01411453 -23.5625 92.875 C-26.65614358 91.76446128 -27.58995184 90.97676834 -29 88 C-29.13357122 84.46036259 -28.91191842 82.08181008 -26.57421875 79.30859375 C-25.36935793 78.15716356 -24.14975635 77.02101506 -22.91796875 75.8984375 C-18.99214567 72.01259225 -15.74767013 67.2430104 -14 62 C-13.34 62 -12.68 62 -12 62 C-11.8659375 61.28199219 -11.731875 60.56398438 -11.59375 59.82421875 C-11.020984 57.09981204 -10.28844822 54.48139724 -9.5 51.8125 C-8.03553665 46.55471938 -7.34207185 41.4377628 -7 36 C-6.67 36 -6.34 36 -6 36 C-5.67 37.65 -5.34 39.3 -5 41 C-4.67 41 -4.34 41 -4 41 C-3.92572162 44.34252724 -3.93453047 46.8035914 -5 50 C-3.02 49.505 -3.02 49.505 -1 49 C-1 48.01 -1 47.02 -1 46 C-0.34 46 0.32 46 1 46 C1.66 44.02 2.32 42.04 3 40 C3.33 40 3.66 40 4 40 C4 35.05 4 30.1 4 25 C3.01 24.67 2.02 24.34 1 24 C0.19921875 22.22265625 0.19921875 22.22265625 -0.3125 20.0625 C-0.49425781 19.35222656 -0.67601562 18.64195312 -0.86328125 17.91015625 C-0.90839844 17.27980469 -0.95351563 16.64945313 -1 16 C-0.34 15.34 0.32 14.68 1 14 C0.71049173 10.41009742 0.28957646 7.10039053 -0.625 3.625 C-1 2 -1 2 0 0 Z " fill="#E99822" transform="translate(329,212)"/>
<path d="M0 0 C2.71069514 2.71069514 2.25782525 4.17415816 2.265625 7.9609375 C2.26949219 9.75144531 2.26949219 9.75144531 2.2734375 11.578125 C2.26570313 12.83109375 2.25796875 14.0840625 2.25 15.375 C2.25773437 16.62023437 2.26546875 17.86546875 2.2734375 19.1484375 C2.27085937 20.3446875 2.26828125 21.5409375 2.265625 22.7734375 C2.26336914 23.87091309 2.26111328 24.96838867 2.25878906 26.09912109 C2.00267914 28.96996833 1.57743062 30.61315288 0 33 C-2.125 34.25 -2.125 34.25 -4 35 C-3.79375 35.61875 -3.5875 36.2375 -3.375 36.875 C-3.25125 37.57625 -3.1275 38.2775 -3 39 C-3.66 39.66 -4.32 40.32 -5 41 C-5.33 40.34 -5.66 39.68 -6 39 C-5.87625 40.8253125 -5.87625 40.8253125 -5.75 42.6875 C-5.73799604 46.0726174 -5.96086107 46.93868234 -7.875 49.9375 C-10.68386295 52.66374934 -12.19183104 53.15249845 -16 53.1875 C-16.70125 53.20167969 -17.4025 53.21585937 -18.125 53.23046875 C-20 53 -20 53 -22 51 C-22.26991906 48.31160615 -22.08737357 45.70858064 -22 43 C-21.34 43 -20.68 43 -20 43 C-20 42.34 -20 41.68 -20 41 C-19.34 41 -18.68 41 -18 41 C-17.72285156 40.27941406 -17.44570313 39.55882812 -17.16015625 38.81640625 C-15.68356751 35.23182551 -13.90654842 31.84080096 -12.12109375 28.40234375 C-11.11748571 26.2517551 -10.47601536 24.31589496 -10 22 C-9.01 22 -8.02 22 -7 22 C-6.94392578 20.21142578 -6.94392578 20.21142578 -6.88671875 18.38671875 C-6.82105968 16.820281 -6.75461232 15.25387616 -6.6875 13.6875 C-6.66494141 12.90181641 -6.64238281 12.11613281 -6.61914062 11.30664062 C-6.58369141 10.54931641 -6.54824219 9.79199219 -6.51171875 9.01171875 C-6.48553467 8.31522217 -6.45935059 7.61872559 -6.43237305 6.90112305 C-5.88776232 4.50649641 -4.84170838 3.56727453 -3 2 C-2.67 3.65 -2.34 5.3 -2 7 C-1.34 4.69 -0.68 2.38 0 0 Z " fill="#F39B1D" transform="translate(305,231)"/>
<path d="M0 0 C0.66 0.33 1.32 0.66 2 1 C3.425 8.3625 3.425 8.3625 1 12 C1.57707802 15.64484416 1.57707802 15.64484416 3 19 C3.99 19.33 4.98 19.66 6 20 C6.0809313 22.60478883 6.14045434 25.20706653 6.1875 27.8125 C6.22520508 28.91948242 6.22520508 28.91948242 6.26367188 30.04882812 C6.33819555 35.53873885 6.33819555 35.53873885 4.59375 37.91796875 C3.80484375 38.45357422 3.80484375 38.45357422 3 39 C1.31201173 40.43750191 1.31201173 40.43750191 0 42 C0 42.99 0 43.98 0 45 C-2.475 45.495 -2.475 45.495 -5 46 C-4.67 43.69 -4.34 41.38 -4 39 C-4.33 39 -4.66 39 -5 39 C-5 32.4 -5 25.8 -5 19 C-4.67 19 -4.34 19 -4 19 C-3.67900232 15.46902554 -4.12606081 13.70753893 -5.5625 10.375 C-7 7 -7 7 -6 4 C-5.34 4 -4.68 4 -4 4 C-4 4.99 -4 5.98 -4 7 C-3.34 7 -2.68 7 -2 7 C-1.34 4.69 -0.68 2.38 0 0 Z " fill="#F39D21" transform="translate(328,217)"/>
<path d="M0 0 C0.86716141 -0.00335861 1.73432281 -0.00671722 2.62776184 -0.01017761 C5.49428745 -0.01967571 8.36075456 -0.02163024 11.22729492 -0.02270508 C13.22263106 -0.02591875 15.21796697 -0.02928291 17.21330261 -0.03279114 C21.39709011 -0.03877976 25.58085696 -0.04063134 29.76464844 -0.04003906 C35.11780845 -0.03993752 40.47083558 -0.05358229 45.82396412 -0.07081127 C49.94614771 -0.08194719 54.06829935 -0.08395777 58.19049644 -0.08342934 C60.16359604 -0.08460733 62.13669651 -0.08901898 64.10978127 -0.0967617 C66.8740625 -0.10659243 69.63805761 -0.10367122 72.40234375 -0.09765625 C73.21245911 -0.10327576 74.02257446 -0.10889526 74.85723877 -0.11468506 C79.73086808 -0.08782662 83.80556432 0.44760452 88.39526367 2.14526367 C88.89026367 3.13526367 88.89026367 3.13526367 89.39526367 4.14526367 C54.74526367 4.14526367 20.09526367 4.14526367 -15.60473633 4.14526367 C-10.84852518 -0.61094747 -6.47553056 -0.00359552 0 0 Z " fill="#C4553D" transform="translate(212.604736328125,158.854736328125)"/>
<path d="M0 0 C1.4800841 0.11362262 2.95910074 0.24122908 4.4375 0.375 C5.26121094 0.44460938 6.08492187 0.51421875 6.93359375 0.5859375 C7.95646484 0.79089844 7.95646484 0.79089844 9 1 C9.33 1.66 9.66 2.32 10 3 C12.32495277 3.38749213 14.6599583 3.71758117 17 4 C17.99 4.33 18.98 4.66 20 5 C20.99 5 21.98 5 23 5 C23 5.66 23 6.32 23 7 C24.07297333 6.99777939 25.14594666 6.99555878 26.25143433 6.99327087 C36.34608519 6.97302966 46.44073196 6.95802312 56.53539848 6.94818783 C61.72559325 6.9429615 66.91577167 6.93586836 72.10595703 6.92456055 C77.11150397 6.91372282 82.11703516 6.90772127 87.12259293 6.90512276 C89.03562798 6.90327011 90.94866214 6.89965256 92.86169052 6.89426994 C95.53395219 6.88704779 98.20614816 6.88600956 100.87841797 6.88647461 C102.07387741 6.8810817 102.07387741 6.8810817 103.29348755 6.87557983 C108.77189568 6.88594784 108.77189568 6.88594784 111 8 C111 8.66 111 9.32 111 10 C101.29808323 10.02327877 91.59617623 10.0409937 81.89423752 10.05181217 C77.38814042 10.05700725 72.88206258 10.06404282 68.37597656 10.07543945 C64.01876896 10.08638926 59.66157975 10.09230219 55.30435944 10.09487724 C53.65078695 10.09670987 51.99721536 10.10028801 50.34365082 10.10573006 C32.40352037 10.1623678 16.39173515 9.15250319 0 1 C0 0.67 0 0.34 0 0 Z " fill="#BF543C" transform="translate(171,348)"/>
<path d="M0 0 C-0.03480469 1.7015625 -0.03480469 1.7015625 -0.0703125 3.4375 C-0.08908814 4.95832668 -0.1072864 6.47916057 -0.125 8 C-0.14175781 8.74378906 -0.15851563 9.48757812 -0.17578125 10.25390625 C-0.20992496 14.18043277 0.04738484 17.63461599 1.0703125 21.4375 C2 25 2 25 1 27 C0.34 27 -0.32 27 -1 27 C-1 28.98 -1 30.96 -1 33 C-1.33 32.34 -1.66 31.68 -2 31 C-5.02934491 30.34227572 -5.02934491 30.34227572 -8 30 C-7.979375 29.195625 -7.95875 28.39125 -7.9375 27.5625 C-7.70366379 25.06645115 -7.70366379 25.06645115 -9 24 C-10.39064427 16.90771422 -11.60702531 6.40587278 -7.828125 0.01953125 C-5.05834649 -1.52515292 -2.98168311 -0.72885587 0 0 Z " fill="#03B7BD" transform="translate(184,245)"/>
<path d="M0 0 C4.29107165 -0.4206933 6.35134537 -0.45543836 9.9375 2.0625 C12.52001338 5.74062512 12.72125695 7.59231863 12 12 C9.84524379 15.27522945 8.3358577 15.90229594 4.5625 17 C1 17 1 17 -1.9375 15.625 C-4.89647055 11.85903748 -4.44436802 8.62142741 -4 4 C-2.68 3.34 -1.36 2.68 0 2 C0 1.34 0 0.68 0 0 Z " fill="#EF9B1F" transform="translate(272,227)"/>
<path d="M0 0 C3.48150271 1.39114439 4.64789512 2.64281602 6.125 6.0625 C7.34829428 9.18259157 7.34829428 9.18259157 10 11 C9.88490339 12.41750563 9.75746342 13.83401169 9.625 15.25 C9.55539062 16.03890625 9.48578125 16.8278125 9.4140625 17.640625 C8.98492887 20.085877 8.21399362 21.84836903 7 24 C5.68 23.01 4.36 22.02 3 21 C3.2165625 21.54527344 3.433125 22.09054688 3.65625 22.65234375 C5.76347804 28.3594197 6.28922492 32.9262767 6 39 C4.515 39.495 4.515 39.495 3 40 C2.89042969 39.17757812 2.78085937 38.35515625 2.66796875 37.5078125 C1.66363323 30.43663724 0.29124965 23.76682398 -2 17 C-1.34 16.67 -0.68 16.34 0 16 C-0.33 15.67 -0.66 15.34 -1 15 C-1.04063832 13.33382885 -1.042721 11.66611905 -1 10 C-1.99 10 -2.98 10 -4 10 C-4.33 8.35 -4.66 6.7 -5 5 C-3 5 -3 5 -1.375 6.5 C-0.92125 6.995 -0.4675 7.49 0 8 C0.99 6.68 1.98 5.36 3 4 C1.68 4.33 0.36 4.66 -1 5 C-0.67 3.35 -0.34 1.7 0 0 Z " fill="#EC9921" transform="translate(319,201)"/>
<path d="M0 0 C3.51468276 3.98691987 5.57088068 7.98168399 7.625 12.8125 C7.9240625 13.48603516 8.223125 14.15957031 8.53125 14.85351562 C13.87751227 27.21379012 14.14946084 39.56622833 14.09765625 52.87890625 C14.09578745 54.30093841 14.09436573 55.72297123 14.09336853 57.14500427 C14.08957971 60.85867134 14.07978117 64.57229831 14.06866455 68.28594971 C14.05837158 72.087112 14.05385414 75.88828087 14.04882812 79.68945312 C14.03815505 87.12632022 14.02112318 94.56315446 14 102 C13.01 102.495 13.01 102.495 12 103 C11.98969254 102.19313248 11.97938507 101.38626495 11.96876526 100.5549469 C11.8704489 92.92000491 11.76788872 85.2851369 11.66066074 77.65031528 C11.60569193 73.72596899 11.55231629 69.80161499 11.50268555 65.87719727 C11.45465446 62.08404085 11.40230269 58.29096562 11.34705925 54.49790764 C11.32680967 53.05679303 11.30807007 51.61565632 11.29092598 50.17450142 C11.12851523 34.75055483 11.12851523 34.75055483 7 20 C6.14427142 17.72975479 5.29021091 15.45888038 4.4375 13.1875 C3.1568008 9.78427128 2.02150557 7.03225836 0 4 C0 2.68 0 1.36 0 0 Z " fill="#C05C45" transform="translate(360,178)"/>
<path d="M0 0 C0.66 0.33 1.32 0.66 2 1 C1.67 5.62 1.34 10.24 1 15 C2.34835938 14.97679687 3.69671875 14.95359375 5.0859375 14.9296875 C6.84895281 14.91093202 8.61197409 14.89273158 10.375 14.875 C11.26445312 14.85824219 12.15390625 14.84148437 13.0703125 14.82421875 C13.92109375 14.81777344 14.771875 14.81132812 15.6484375 14.8046875 C16.82672119 14.78897705 16.82672119 14.78897705 18.02880859 14.77294922 C20 15 20 15 22 17 C22.375 20.4375 22.375 20.4375 22 24 C19.17558274 26.78306115 17.10755798 27.37697972 13.203125 27.38818359 C12.2553418 27.39764008 11.30755859 27.40709656 10.33105469 27.4168396 C9.31430664 27.41076691 8.29755859 27.40469421 7.25 27.3984375 C6.19973633 27.40130768 5.14947266 27.40417786 4.06738281 27.40713501 C1.8483018 27.40917521 -0.37079721 27.40364845 -2.58984375 27.39111328 C-5.98738806 27.37505959 -9.38374271 27.39096407 -12.78125 27.41015625 C-14.93750263 27.40817381 -17.09375451 27.40433012 -19.25 27.3984375 C-20.77512207 27.40754654 -20.77512207 27.40754654 -22.33105469 27.4168396 C-23.27883789 27.40738312 -24.22662109 27.39792664 -25.203125 27.38818359 C-26.45077637 27.38460342 -26.45077637 27.38460342 -27.72363281 27.38095093 C-30.57712747 26.9034175 -31.95557142 26.03297449 -34 24 C-34.25 20.3125 -34.25 20.3125 -34 17 C-33.34 16.67 -32.68 16.34 -32 16 C-31.22389502 18.99354776 -30.60855027 21.95724864 -30 25 C-14.49 24.67 1.02 24.34 17 24 C17 23.01 17 22.02 17 21 C17.99 21 18.98 21 20 21 C20 19.68 20 18.36 20 17 C13.4 16.67 6.8 16.34 0 16 C0 10.72 0 5.44 0 0 Z " fill="#14727C" transform="translate(226,302)"/>
<path d="M0 0 C1.134375 0.020625 2.26875 0.04125 3.4375 0.0625 C3.4375 0.7225 3.4375 1.3825 3.4375 2.0625 C4.7575 2.7225 6.0775 3.3825 7.4375 4.0625 C7.4375 4.7225 7.4375 5.3825 7.4375 6.0625 C8.4275 6.0625 9.4175 6.0625 10.4375 6.0625 C10.293125 6.67738281 10.14875 7.29226562 10 7.92578125 C9.814375 8.73402344 9.62875 9.54226562 9.4375 10.375 C9.251875 11.17550781 9.06625 11.97601563 8.875 12.80078125 C8.34254177 15.16945938 8.34254177 15.16945938 8.4375 18.0625 C7.4475 18.0625 6.4575 18.0625 5.4375 18.0625 C5.375625 17.134375 5.375625 17.134375 5.3125 16.1875 C5.02375 15.48625 4.735 14.785 4.4375 14.0625 C3.509375 13.753125 2.58125 13.44375 1.625 13.125 C-2.26530334 11.82823222 -3.54720732 10.60941511 -5.5625 7.0625 C-5.16027102 0.09053107 -5.16027102 0.09053107 0 0 Z " fill="#F49D20" transform="translate(305.5625,186.9375)"/>
<path d="M0 0 C2 3.75 2 3.75 2 6 C1.34 6 0.68 6 0 6 C0.66 8.64 1.32 11.28 2 14 C0.35 14.33 -1.3 14.66 -3 15 C-3 16.32 -3 17.64 -3 19 C-5.50484597 21.41847197 -6.46013806 22 -10 22 C-8.0745356 24.2236068 -8.0745356 24.2236068 -5 25 C-4.67 25.66 -4.34 26.32 -4 27 C-3.01 27.33 -2.02 27.66 -1 28 C-1 25.69 -1 23.38 -1 21 C0.32 21 1.64 21 3 21 C3.51264032 24.58848221 3.13857753 25.80512535 1 28.8125 C-3.07905842 31.78681343 -5.04319159 31.56881408 -10 31 C-12 29 -12 29 -12.1953125 27.0546875 C-12.13020833 25.03645833 -12.06510417 23.01822917 -12 21 C-11.34 21 -10.68 21 -10 21 C-10 20.34 -10 19.68 -10 19 C-9.34 19 -8.68 19 -8 19 C-7.72285156 18.27941406 -7.44570313 17.55882812 -7.16015625 16.81640625 C-5.68356751 13.23182551 -3.90654842 9.84080096 -2.12109375 6.40234375 C-1.11748571 4.2517551 -0.47601536 2.31589496 0 0 Z " fill="#CC8D2A" transform="translate(295,253)"/>
<path d="M0 0 C2.05078125 0.03255208 4.1015625 0.06510417 6.15234375 0.09765625 C6.15234375 0.75765625 6.15234375 1.41765625 6.15234375 2.09765625 C6.81234375 2.09765625 7.47234375 2.09765625 8.15234375 2.09765625 C8.21292969 3.24363281 8.27351562 4.38960937 8.3359375 5.5703125 C8.42041364 7.10026922 8.50505802 8.63021666 8.58984375 10.16015625 C8.62916016 10.91232422 8.66847656 11.66449219 8.70898438 12.43945312 C8.96815094 17.04464366 9.43228585 21.54132349 10.15234375 26.09765625 C9.49234375 26.09765625 8.83234375 26.09765625 8.15234375 26.09765625 C6.16790802 21.14824006 5.93197436 17.07169798 6.08984375 11.84765625 C6.43591652 6.82532572 6.43591652 6.82532572 5.15234375 2.09765625 C1.9025124 3.18550593 1.9025124 3.18550593 -0.84765625 5.09765625 C-1.00480279 6.73022383 -1.09851039 8.36900963 -1.1640625 10.0078125 C-1.20595703 10.99716797 -1.24785156 11.98652344 -1.29101562 13.00585938 C-1.34999023 14.56723633 -1.34999023 14.56723633 -1.41015625 16.16015625 C-1.45333984 17.20494141 -1.49652344 18.24972656 -1.54101562 19.32617188 C-1.6474685 21.91652509 -1.74948385 24.50697811 -1.84765625 27.09765625 C-1.18765625 27.42765625 -0.52765625 27.75765625 0.15234375 28.09765625 C-0.50765625 29.08765625 -1.16765625 30.07765625 -1.84765625 31.09765625 C-4.90813218 22.73235536 -6.82649257 11.94458827 -3.8984375 3.29296875 C-2.38254033 0.12592708 -2.38254033 0.12592708 0 0 Z " fill="#129DA1" transform="translate(176.84765625,241.90234375)"/>
<path d="M0 0 C1.67784405 2.51676607 2.56514063 4.26300266 3.5 7.0625 C3.7371875 7.75472656 3.974375 8.44695312 4.21875 9.16015625 C6.44063947 17.23672447 7.27785121 24.75345663 7.125 33.125 C7.11597656 34.08148438 7.10695313 35.03796875 7.09765625 36.0234375 C7.07439827 38.34923525 7.04172213 40.67447294 7 43 C4.06552643 40.06552643 4.53841577 36.81740544 4.375 32.875 C4.33632813 32.12089844 4.29765625 31.36679688 4.2578125 30.58984375 C4.16348969 28.72696816 4.08065338 26.86351745 4 25 C3.01 24.67 2.02 24.34 1 24 C0.19921875 22.22265625 0.19921875 22.22265625 -0.3125 20.0625 C-0.49425781 19.35222656 -0.67601562 18.64195312 -0.86328125 17.91015625 C-0.90839844 17.27980469 -0.95351563 16.64945313 -1 16 C-0.34 15.34 0.32 14.68 1 14 C0.71049173 10.41009742 0.28957646 7.10039053 -0.625 3.625 C-1 2 -1 2 0 0 Z " fill="#F69D24" transform="translate(329,212)"/>
<path d="M0 0 C0.33 0.66 0.66 1.32 1 2 C-2.31764301 9.31006088 -7.1198798 17.53146833 -14 22 C-16.23828125 21.69921875 -16.23828125 21.69921875 -18 21 C-17.01 20.34 -16.02 19.68 -15 19 C-15.33 18.67 -15.66 18.34 -16 18 C-16.04063832 16.33382885 -16.042721 14.66611905 -16 13 C-15.01 12.67 -14.02 12.34 -13 12 C-11.78130071 9.49552484 -11.78130071 9.49552484 -11 7 C-9.68 7.33 -8.36 7.66 -7 8 C-6.34 7.01 -5.68 6.02 -5 5 C-4.34 5 -3.68 5 -3 5 C-3 3.68 -3 2.36 -3 1 C-2.01 0.67 -1.02 0.34 0 0 Z " fill="#0CA0A6" transform="translate(264,271)"/>
<path d="M0 0 C0.33 0 0.66 0 1 0 C6.06048566 15.49773733 2.34500407 29.68741449 -4 44 C-4.66 44 -5.32 44 -6 44 C-6.66 45.32 -7.32 46.64 -8 48 C-8.33 45.36 -8.66 42.72 -9 40 C-8.01 40.33 -7.02 40.66 -6 41 C-6 39.68 -6 38.36 -6 37 C-5.01 36.34 -4.02 35.68 -3 35 C-2.26656572 31.93443402 -2.26656572 31.93443402 -2 29 C-1.67 29 -1.34 29 -1 29 C-0.67 19.43 -0.34 9.86 0 0 Z " fill="#BA862F" transform="translate(307,229)"/>
<path d="M0 0 C2.91937645 4.37906468 3.12875101 7.36814069 3.14526367 12.53173828 C3.15030159 13.520205 3.15030159 13.520205 3.15544128 14.52864075 C3.1649454 16.70921717 3.16689462 18.88971665 3.16796875 21.0703125 C3.17118347 22.5914615 3.17454771 24.11261019 3.17805481 25.63375854 C3.18404598 28.82648433 3.1858949 32.01918305 3.18530273 35.21191406 C3.18520152 39.28361705 3.1988118 43.35514406 3.21607494 47.4268055 C3.22725315 50.5719989 3.22922011 53.71715068 3.22869301 56.86236191 C3.22986598 58.36211626 3.23424903 59.86187194 3.24202538 61.3616066 C3.27862515 69.15438749 3.12148523 76.44841645 1 84 C0.34 84 -0.32 84 -1 84 C-1 85.32 -1 86.64 -1 88 C-1.66 88 -2.32 88 -3 88 C-2.71487549 86.97720947 -2.42975098 85.95441895 -2.13598633 84.90063477 C1.76195728 69.64390231 1.48670045 54.59147983 1.3125 38.9375 C1.29829224 36.26627897 1.29120333 33.59508019 1.28320312 30.92382812 C1.26978978 28.35415805 1.2548698 25.78449529 1.23828125 23.21484375 C1.22720085 21.44583961 1.22720085 21.44583961 1.21589661 19.64109802 C1.14019136 13.04012917 0.80027258 6.55408558 0 0 Z " fill="#BD5845" transform="translate(352,209)"/>
<path d="M0 0 C0.66 0.33 1.32 0.66 2 1 C4.204364 1.22950319 6.41392173 1.41075933 8.625 1.5625 C9.81351563 1.64628906 11.00203125 1.73007813 12.2265625 1.81640625 C13.59941406 1.90728516 13.59941406 1.90728516 15 2 C15.02688151 3.64574566 15.04634123 5.29161413 15.0625 6.9375 C15.07410156 7.85402344 15.08570313 8.77054688 15.09765625 9.71484375 C15 12 15 12 14 13 C12.04583843 13.20999945 10.08599701 13.36832634 8.125 13.5 C4.81281812 13.72347251 2.15623804 13.94792065 -1 15 C-0.34 16.65 0.32 18.3 1 20 C0.01 19.67 -0.98 19.34 -2 19 C-2.125 13.25 -2.125 13.25 -1 11 C1.06640625 10.1484375 1.06640625 10.1484375 3.5625 9.375 C4.38878906 9.11460937 5.21507812 8.85421875 6.06640625 8.5859375 C6.70449219 8.39257812 7.34257812 8.19921875 8 8 C8.33 8.99 8.66 9.98 9 11 C9.99 10.67 10.98 10.34 12 10 C12.33 8.02 12.66 6.04 13 4 C11.5410574 4.47730838 10.08286504 4.95691042 8.625 5.4375 C7.81289062 5.70433594 7.00078125 5.97117188 6.1640625 6.24609375 C3.98968201 6.95179729 3.98968201 6.95179729 2 8 C1 5 1 5 1 3 C0.67 2.01 0.34 1.02 0 0 Z " fill="#17A3AD" transform="translate(233,233)"/>
<path d="M0 0 C0.66 0 1.32 0 2 0 C2.33 0.33 2.66 0.66 3 1 C3.66 0.67 4.32 0.34 5 0 C5 0.99 5 1.98 5 3 C3.02 3.99 3.02 3.99 1 5 C1.66 5.66 2.32 6.32 3 7 C3.125 9.625 3.125 9.625 3 12 C1.02 12.33 -0.96 12.66 -3 13 C-3 13.66 -3 14.32 -3 15 C-3 15.99 -3 16.98 -3 18 C-4.32 18 -5.64 18 -7 18 C-8.47896861 15.04206277 -8.4355582 13.29779776 -8 10 C-5.72418478 6.63179347 -2.86413881 3.86413881 0 1 C0 0.67 0 0.34 0 0 Z " fill="#F39C1B" transform="translate(311,285)"/>
<path d="M0 0 C1.32 0 2.64 0 4 0 C4 2.64 4 5.28 4 8 C4.66 8 5.32 8 6 8 C5.67 9.32 5.34 10.64 5 12 C4.01 12 3.02 12 2 12 C2 12.99 2 13.98 2 15 C0.02 15.99 0.02 15.99 -2 17 C-2.33 15.02 -2.66 13.04 -3 11 C-4.32 11 -5.64 11 -7 11 C-7 10.34 -7 9.68 -7 9 C-6.34 9 -5.68 9 -5 9 C-4.67 8.01 -4.34 7.02 -4 6 C-3.34 6 -2.68 6 -2 6 C-2 4.68 -2 3.36 -2 2 C-1.34 2 -0.68 2 0 2 C0 1.34 0 0.68 0 0 Z " fill="#F49C1E" transform="translate(319,273)"/>
<path d="M0 0 C2.7443949 1.04097738 3.9787139 1.97284187 5.8125 4.3125 C7.24280495 7.54950595 7.23383682 8.70976847 6 12 C3.9375 14.8125 3.9375 14.8125 2 17 C0 16 0 16 -1 15 C-1.04063832 13.33382885 -1.042721 11.66611905 -1 10 C-1.99 10 -2.98 10 -4 10 C-4.33 8.35 -4.66 6.7 -5 5 C-3 5 -3 5 -1.375 6.5 C-0.92125 6.995 -0.4675 7.49 0 8 C0.99 6.68 1.98 5.36 3 4 C1.68 4.33 0.36 4.66 -1 5 C-0.67 3.35 -0.34 1.7 0 0 Z " fill="#F49C1B" transform="translate(319,201)"/>
<path d="M0 0 C0.99 0.495 0.99 0.495 2 1 C2.41064453 3.08203125 2.41064453 3.08203125 2.6328125 5.8125 C2.71660156 6.80636719 2.80039062 7.80023438 2.88671875 8.82421875 C2.96535156 9.87222656 3.04398437 10.92023438 3.125 12 C3.21136719 13.01707031 3.29773438 14.03414063 3.38671875 15.08203125 C4.77416896 32.23796317 4.77416896 32.23796317 2 39 C1.67 39 1.34 39 1 39 C1.01160156 37.83082031 1.02320313 36.66164063 1.03515625 35.45703125 C1.04453913 33.90885577 1.0536388 32.36067855 1.0625 30.8125 C1.07087891 30.04357422 1.07925781 29.27464844 1.08789062 28.48242188 C1.10112859 25.39797684 1.10629413 22.53147065 0.5 19.5 C-0.25246535 15.73767325 -0.1041863 12.01301932 -0.0625 8.1875 C-0.05573242 7.00510742 -0.05573242 7.00510742 -0.04882812 5.79882812 C-0.03711312 3.86585239 -0.01917998 1.93291607 0 0 Z " fill="#AD533F" transform="translate(339,344)"/>
<path d="M0 0 C0.19335938 0.59167969 0.38671875 1.18335938 0.5859375 1.79296875 C0.84632813 2.58316406 1.10671875 3.37335938 1.375 4.1875 C1.64699219 5.01378906 1.91898438 5.84007812 2.19921875 6.69140625 C2.98950578 9.0826135 2.98950578 9.0826135 4.1875 11.625 C5.29221144 14.85415652 5.25540667 17.6158616 5 21 C3 23 3 23 0.375 23.125 C-0.40875 23.08375 -1.1925 23.0425 -2 23 C-2 23.66 -2 24.32 -2 25 C-3.98 25.66 -5.96 26.32 -8 27 C-7.01 25.515 -7.01 25.515 -6 24 C-5.34 24 -4.68 24 -4 24 C-4 23.34 -4 22.68 -4 22 C1.41176471 18 1.41176471 18 4 18 C3.73445312 17.46890625 3.46890625 16.9378125 3.1953125 16.390625 C2.13020833 14.26041667 1.06510417 12.13020833 0 10 C-0.37382812 9.31421875 -0.74765625 8.6284375 -1.1328125 7.921875 C-2 6 -2 6 -2 3 C-3.65 2.67 -5.3 2.34 -7 2 C-7 1.67 -7 1.34 -7 1 C-1.125 0 -1.125 0 0 0 Z " fill="#BE5641" transform="translate(160,136)"/>
<path d="M0 0 C0.33 0.66 0.66 1.32 1 2 C0.34 2 -0.32 2 -1 2 C-3.65594501 5.9785411 -3.4096342 10.25919843 -3.5625 14.875 C-3.758998 20.00067132 -4.01731441 24.94850876 -5 30 C-5.33 30 -5.66 30 -6 30 C-6.85734896 24.74873762 -7.13603176 19.56731306 -7.1875 14.25 C-7.20167969 12.97640625 -7.21585937 11.7028125 -7.23046875 10.390625 C-7.01564711 7.23019813 -6.78411811 5.56429179 -5 3 C-2.375 1.25 -2.375 1.25 0 0 Z " fill="#D15F47" transform="translate(327,323)"/>
<path d="M0 0 C1.98 0.495 1.98 0.495 4 1 C3.67 2.32 3.34 3.64 3 5 C5.64 5.33 8.28 5.66 11 6 C10.4409112 9.24271506 9.5867822 10.93057424 7 13 C6.34 13 5.68 13 5 13 C4.34 12.34 3.68 11.68 3 11 C2.01 10.34 1.02 9.68 0 9 C-1.35 2.7 -1.35 2.7 0 0 Z " fill="#F59B1C" transform="translate(287,207)"/>
<path d="M0 0 C1.875 1.625 1.875 1.625 3 3 C2.01 3.495 2.01 3.495 1 4 C1 3.34 1 2.68 1 2 C0.01 2 -0.98 2 -2 2 C-2 1.34 -2 0.68 -2 0 C-3.79206547 0.14084796 -5.58364917 0.28783701 -7.375 0.4375 C-8.87160156 0.55931641 -8.87160156 0.55931641 -10.3984375 0.68359375 C-12.97927613 0.84965626 -12.97927613 0.84965626 -15 2 C-15.66 1.67 -16.32 1.34 -17 1 C-17 1.66 -17 2.32 -17 3 C-19.97 2.67 -22.94 2.34 -26 2 C-19.02571126 -4.97428874 -8.50612793 -3.6454834 0 0 Z " fill="#0D9DA0" transform="translate(232,185)"/>
<path d="M0 0 C3.51468276 3.98691987 5.57088068 7.98168399 7.625 12.8125 C7.9240625 13.48603516 8.223125 14.15957031 8.53125 14.85351562 C11.36526071 21.40559792 13.36163739 27.76725212 13 35 C12.67 35 12.34 35 12 35 C11.731875 34.01 11.46375 33.02 11.1875 32 C10.01499122 27.91250412 8.53117484 23.9641857 7 20 C6.59265625 18.91332031 6.1853125 17.82664063 5.765625 16.70703125 C5.32734375 15.54558594 4.8890625 14.38414062 4.4375 13.1875 C4.02371094 12.08792969 3.60992187 10.98835937 3.18359375 9.85546875 C2.0556676 6.87352551 2.0556676 6.87352551 0 4 C0 2.68 0 1.36 0 0 Z " fill="#C55B46" transform="translate(360,178)"/>
<path d="M0 0 C1.4800841 0.11362262 2.95910074 0.24122908 4.4375 0.375 C5.26121094 0.44460938 6.08492187 0.51421875 6.93359375 0.5859375 C7.95646484 0.79089844 7.95646484 0.79089844 9 1 C9.33 1.66 9.66 2.32 10 3 C12.32495277 3.38749213 14.6599583 3.71758117 17 4 C17.99 4.33 18.98 4.66 20 5 C20.99 5 21.98 5 23 5 C23 5.66 23 6.32 23 7 C28.28 7 33.56 7 39 7 C30.32152548 11.33923726 21.19964134 8.92413937 12.29296875 6.15625 C8.07265559 4.67438441 4.00441388 2.99161325 0 1 C0 0.67 0 0.34 0 0 Z " fill="#B75644" transform="translate(171,348)"/>
<path d="M0 0 C3.06875309 1.4639923 5.90434743 3.14009636 8.75 5 C9.94882812 5.7734375 9.94882812 5.7734375 11.171875 6.5625 C11.77515625 7.036875 12.3784375 7.51125 13 8 C13 8.66 13 9.32 13 10 C14.98 10.66 16.96 11.32 19 12 C19 12.66 19 13.32 19 14 C20.65 14.66 22.3 15.32 24 16 C24 16.99 24 17.98 24 19 C23.67 18.34 23.34 17.68 23 17 C21.68 17 20.36 17 19 17 C18.67 15.68 18.34 14.36 18 13 C15.69 13.33 13.38 13.66 11 14 C11 12.68 11 11.36 11 10 C10.01 9.67 9.02 9.34 8 9 C8 8.34 8 7.68 8 7 C7.360625 6.896875 6.72125 6.79375 6.0625 6.6875 C5.381875 6.460625 4.70125 6.23375 4 6 C3.67 5.01 3.34 4.02 3 3 C2.34 3 1.68 3 1 3 C0.67 2.01 0.34 1.02 0 0 Z " fill="#D8634B" transform="translate(293,342)"/>
<path d="M0 0 C4.29 0 8.58 0 13 0 C12.62395172 6.76886905 11.92782349 12.32318341 8 18 C7.34 18.33 6.68 18.66 6 19 C6 17.35 6 15.7 6 14 C6.99 14 7.98 14 9 14 C9 10.04 9 6.08 9 2 C6.36 2 3.72 2 1 2 C0.67 1.34 0.34 0.68 0 0 Z " fill="#0F767D" transform="translate(234,253)"/>
<path d="M0 0 C2.64 0 5.28 0 8 0 C7.67 0.99 7.34 1.98 7 3 C5.35 2.67 3.7 2.34 2 2 C1.91160873 5.18208557 1.95648303 7.97380078 3 11 C3.66 11.66 4.32 12.32 5 13 C4.625 15.125 4.625 15.125 4 17 C-1.72556054 11.5470852 -1.72556054 11.5470852 -2.3984375 7.75390625 C-2.375 5.5625 -2.375 5.5625 -2 2 C-1.34 2 -0.68 2 0 2 C0 1.34 0 0.68 0 0 Z " fill="#AC7A28" transform="translate(285,205)"/>
<path d="M0 0 C2.64 0 5.28 0 8 0 C8 0.66 8 1.32 8 2 C8.66 2 9.32 2 10 2 C10.06058594 3.14597656 10.12117187 4.29195312 10.18359375 5.47265625 C10.26806989 7.00261297 10.35271427 8.53256041 10.4375 10.0625 C10.47681641 10.81466797 10.51613281 11.56683594 10.55664062 12.34179688 C10.81580719 16.94698741 11.2799421 21.44366724 12 26 C11.34 26 10.68 26 10 26 C8.01556427 21.05058381 7.77963061 16.97404173 7.9375 11.75 C8.28357277 6.72766947 8.28357277 6.72766947 7 2 C4.03 2.66 1.06 3.32 -2 4 C-1.34 2.68 -0.68 1.36 0 0 Z " fill="#1C949B" transform="translate(175,242)"/>
<path d="M0 0 C0.66 0 1.32 0 2 0 C2.24915939 1.76813112 2.47366632 3.53974982 2.6875 5.3125 C2.81511719 6.29863281 2.94273437 7.28476563 3.07421875 8.30078125 C3 11 3 11 1.76953125 12.85546875 C0 14 0 14 -4 14 C-3.21824485 9.15311808 -1.60155722 4.6233633 0 0 Z " fill="#F19A1F" transform="translate(300,216)"/>
<path d="M0 0 C0.66 0 1.32 0 2 0 C2.40762948 6.46383888 1.2807412 10.70231565 -1.5 16.5 C-2.00080078 17.59054687 -2.00080078 17.59054687 -2.51171875 18.703125 C-3.32771295 20.47499813 -4.16197592 22.23843917 -5 24 C-6.03159626 20.90521121 -5.97482862 19.47368607 -5.5625 16.3125 C-5.46066406 15.50425781 -5.35882813 14.69601562 -5.25390625 13.86328125 C-5.17011719 13.24839844 -5.08632813 12.63351562 -5 12 C-4.01 11.67 -3.02 11.34 -2 11 C-1.34 7.37 -0.68 3.74 0 0 Z " fill="#BD5741" transform="translate(369,289)"/>
<path d="M0 0 C0.99 0 1.98 0 3 0 C2.67 1.32 2.34 2.64 2 4 C2.66 4.33 3.32 4.66 4 5 C3.01 5.99 2.02 6.98 1 8 C0.67 7.67 0.34 7.34 0 7 C-2.31 7.66 -4.62 8.32 -7 9 C-7 9.99 -7 10.98 -7 12 C-8.65 12 -10.3 12 -12 12 C-10.71034824 10.62437146 -9.37310707 9.29233607 -8 8 C-7.34 8 -6.68 8 -6 8 C-6 7.34 -6 6.68 -6 6 C-5.34 6 -4.68 6 -4 6 C-4 5.34 -4 4.68 -4 4 C-3.34 4 -2.68 4 -2 4 C-1.34 2.68 -0.68 1.36 0 0 Z " fill="#E15E40" transform="translate(340,311)"/>
<path d="M0 0 C0.99 0.33 1.98 0.66 3 1 C3 3.31 3 5.62 3 8 C3.66 8 4.32 8 5 8 C5.02692484 10.29160319 5.04636124 12.58329546 5.0625 14.875 C5.07410156 16.15117187 5.08570313 17.42734375 5.09765625 18.7421875 C5 22 5 22 4 24 C3.34 24 2.68 24 2 24 C2.02320313 23.18917969 2.04640625 22.37835938 2.0703125 21.54296875 C2.19154029 14.10477802 1.62918925 7.25861997 0 0 Z " fill="#BD8232" transform="translate(294,229)"/>
<path d="M0 0 C0.62109375 1.890625 0.62109375 1.890625 1 4 C0.360625 4.5775 -0.27875 5.155 -0.9375 5.75 C-3.2976885 8.32475109 -3.27941642 8.90829425 -3.25 12.25 C-3.1675 13.4875 -3.085 14.725 -3 16 C-1.68 16 -0.36 16 1 16 C1 16.66 1 17.32 1 18 C-1.94563014 17.6815535 -3.61076606 17.33733608 -5.875 15.375 C-7.57065253 11.7952891 -7.10531246 9.77106603 -6 6 C-4.16805611 3.68729736 -2.24091567 1.95484132 0 0 Z " fill="#A2762D" transform="translate(307,287)"/>
<path d="M0 0 C6.57142857 5 6.57142857 5 8 10 C7.34 10.66 6.68 11.32 6 12 C5.67 10.35 5.34 8.7 5 7 C2.36 7 -0.28 7 -3 7 C-3 4 -3 4 -2 1 C-1.34 0.67 -0.68 0.34 0 0 Z " fill="#C98725" transform="translate(293,206)"/>
<path d="M0 0 C0.33 0 0.66 0 1 0 C1 1.65 1 3.3 1 5 C1.66 5 2.32 5 3 5 C3 5.99 3 6.98 3 8 C2.01 8 1.02 8 0 8 C0 8.66 0 9.32 0 10 C-0.66 10 -1.32 10 -2 10 C-2 11.32 -2 12.64 -2 14 C-3.375 15.75 -3.375 15.75 -5 17 C-5.66 17 -6.32 17 -7 17 C-7 17.66 -7 18.32 -7 19 C-7.66 18.67 -8.32 18.34 -9 18 C-7.35 15.03 -5.7 12.06 -4 9 C-3.34 9 -2.68 9 -2 9 C-1.7834375 7.88625 -1.7834375 7.88625 -1.5625 6.75 C-1.09812508 4.47972261 -0.58136431 2.24240521 0 0 Z " fill="#D59533" transform="translate(319,265)"/>
<path d="M0 0 C1.83069903 3.12929178 2.23931181 5.37643146 2.1953125 8.984375 C2.18886719 9.91894531 2.18242187 10.85351562 2.17578125 11.81640625 C2.15902344 12.78449219 2.14226562 13.75257813 2.125 14.75 C2.11597656 15.73355469 2.10695313 16.71710938 2.09765625 17.73046875 C2.07412785 20.15389407 2.04125368 22.57682222 2 25 C-0.41373115 22.58626885 -0.29429564 21.84932155 -0.44921875 18.53515625 C-0.49240234 17.65279297 -0.53558594 16.77042969 -0.58007812 15.86132812 C-0.61552734 14.93771484 -0.65097656 14.01410156 -0.6875 13.0625 C-0.73455078 12.14275391 -0.78160156 11.22300781 -0.83007812 10.27539062 C-1.13567306 3.40701918 -1.13567306 3.40701918 0 0 Z " fill="#9D7128" transform="translate(334,230)"/>
<path d="M0 0 C0 0.66 0 1.32 0 2 C1.65 2.33 3.3 2.66 5 3 C5 3.33 5 3.66 5 4 C3.75283203 4.09087891 3.75283203 4.09087891 2.48046875 4.18359375 C0.85044922 4.30927734 0.85044922 4.30927734 -0.8125 4.4375 C-1.89144531 4.51871094 -2.97039062 4.59992188 -4.08203125 4.68359375 C-7.05989905 4.90212461 -7.05989905 4.90212461 -10 6 C-9.34 7.65 -8.68 9.3 -8 11 C-8.99 10.67 -9.98 10.34 -11 10 C-11.125 4.25 -11.125 4.25 -10 2 C-8.22265625 1.11328125 -8.22265625 1.11328125 -6.0625 0.3125 C-5.35222656 0.04050781 -4.64195312 -0.23148438 -3.91015625 -0.51171875 C-2 -1 -2 -1 0 0 Z " fill="#0A8E94" transform="translate(242,242)"/>
<path d="M0 0 C0.66 1.32 1.32 2.64 2 4 C4.0335948 5.26804566 4.0335948 5.26804566 6 6 C5.34 6 4.68 6 4 6 C3.67 10.62 3.34 15.24 3 20 C1.68 19.34 0.36 18.68 -1 18 C-0.34 17.67 0.32 17.34 1 17 C0.67 11.39 0.34 5.78 0 0 Z " fill="#F26648" transform="translate(322,347)"/>
<path d="M0 0 C0.33 0 0.66 0 1 0 C1.02578125 0.8971875 1.0515625 1.794375 1.078125 2.71875 C1.5258444 12.56857681 3.32281739 21.52401876 6 31 C1.74289597 27.07169669 0.56689114 23.69071489 0 18 C-0.21277723 12.00049002 -0.11651724 6.00063764 0 0 Z " fill="#D25D43" transform="translate(143,264)"/>
<path d="M0 0 C4.33819529 6.50729293 5.47191953 11.29198093 5 19 C4.01 19.33 3.02 19.66 2 20 C1.86722656 19.13117188 1.73445313 18.26234375 1.59765625 17.3671875 C1.33275391 15.63855469 1.33275391 15.63855469 1.0625 13.875 C0.88847656 12.73804688 0.71445312 11.60109375 0.53515625 10.4296875 C0.18077717 8.15855732 -0.20688118 5.89235043 -0.62890625 3.6328125 C-0.81259766 2.32957031 -0.81259766 2.32957031 -1 1 C-0.67 0.67 -0.34 0.34 0 0 Z " fill="#AC6E25" transform="translate(320,221)"/>
<path d="M0 0 C2.70636554 1.00017857 5.32525933 2.06887966 7.90625 3.359375 C8.23625 2.369375 8.56625 1.379375 8.90625 0.359375 C8.90625 2.339375 8.90625 4.319375 8.90625 6.359375 C7.91625 6.854375 7.91625 6.854375 6.90625 7.359375 C6.24625 6.369375 5.58625 5.379375 4.90625 4.359375 C-0.69145204 2.59167962 -6.25994861 1.87253346 -12.09375 1.359375 C-7.88625097 -0.89721102 -4.6881905 -1.43444635 0 0 Z " fill="#BC5945" transform="translate(314.09375,143.640625)"/>
<path d="M0 0 C-0.33 2.64 -0.66 5.28 -1 8 C-3.875 8.625 -3.875 8.625 -7 9 C-7.66 8.34 -8.32 7.68 -9 7 C-8.07347299 5.82460004 -7.13336613 4.65989423 -6.1875 3.5 C-5.66542969 2.8503125 -5.14335937 2.200625 -4.60546875 1.53125 C-3 0 -3 0 0 0 Z " fill="#02B8C1" transform="translate(253,276)"/>
<path d="M0 0 C2 3.75 2 3.75 2 6 C1.236875 6.20625 0.47375 6.4125 -0.3125 6.625 C-3.83523433 8.42732919 -4.32323818 10.50067099 -6 14 C-8.1875 15.375 -8.1875 15.375 -10 16 C-8.55797524 11.84848662 -6.4989562 8.70021555 -3.875 5.1875 C-3.15054688 4.21167969 -2.42609375 3.23585937 -1.6796875 2.23046875 C-0.84824219 1.12638672 -0.84824219 1.12638672 0 0 Z " fill="#BF5E45" transform="translate(145,169)"/>
<path d="M0 0 C4.32046898 1.41680244 7.00461199 3.53763785 10.3125 6.625 C11.19550781 7.44226563 12.07851563 8.25953125 12.98828125 9.1015625 C13.65214844 9.72804687 14.31601562 10.35453125 15 11 C14.34 11.66 13.68 12.32 13 13 C12.773125 12.360625 12.54625 11.72125 12.3125 11.0625 C11.14749104 8.72806339 11.14749104 8.72806339 8.375 8.25 C7.59125 8.1675 6.8075 8.085 6 8 C5.67 6.68 5.34 5.36 5 4 C4.360625 3.896875 3.72125 3.79375 3.0625 3.6875 C2.381875 3.460625 1.70125 3.23375 1 3 C0.67 2.01 0.34 1.02 0 0 Z " fill="#B6533F" transform="translate(335,154)"/>
<path d="M0 0 C3.09498477 -0.44214068 5.00505499 -0.68802791 8 0 C11.04971254 2.3491029 13.5299147 5.05691965 16 8 C15 10 15 10 13 11 C13 9.68 13 8.36 13 7 C12.01 7 11.02 7 10 7 C10 6.34 10 5.68 10 5 C8.63875 4.5978125 8.63875 4.5978125 7.25 4.1875 C4.28528037 3.10423706 2.3830246 2.01640543 0 0 Z " fill="#C18A30" transform="translate(303,186)"/>
<path d="M0 0 C2.01822917 0.29296875 4.03645833 0.5859375 6.0546875 0.87890625 C8.08140667 1.1684297 8.08140667 1.1684297 10 0 C10 0.66 10 1.32 10 2 C10.66 2 11.32 2 12 2 C11.67 3.65 11.34 5.3 11 7 C9.02 6.34 7.04 5.68 5 5 C5 4.34 5 3.68 5 3 C2.525 2.01 2.525 2.01 0 1 C0 0.67 0 0.34 0 0 Z " fill="#E45C43" transform="translate(308,376)"/>
<path d="M0 0 C2 3 2 3 2 5 C2.66 5 3.32 5 4 5 C4 5.66 4 6.32 4 7 C5.32 7.33 6.64 7.66 8 8 C8 8.99 8 9.98 8 11 C9.32 11 10.64 11 12 11 C11.67 12.32 11.34 13.64 11 15 C10.34 14.67 9.68 14.34 9 14 C9 13.34 9 12.68 9 12 C8.41734375 11.74476563 7.8346875 11.48953125 7.234375 11.2265625 C4.78611777 9.88258913 3.18256752 8.38189704 1.25 6.375 C0.63640625 5.74335938 0.0228125 5.11171875 -0.609375 4.4609375 C-1.06828125 3.97882813 -1.5271875 3.49671875 -2 3 C-1.34 2.67 -0.68 2.34 0 2 C0 1.34 0 0.68 0 0 Z " fill="#B95643" transform="translate(147,326)"/>
<path d="M0 0 C2 4 2 4 2 6 C1.34 6 0.68 6 0 6 C0.66 8.64 1.32 11.28 2 14 C1.01 14.33 0.02 14.66 -1 15 C-2.32 14.34 -3.64 13.68 -5 13 C-3.35 8.71 -1.7 4.42 0 0 Z " fill="#DE9321" transform="translate(295,253)"/>
<path d="M0 0 C0.66 0.66 1.32 1.32 2 2 C-0.31 5.3 -2.62 8.6 -5 12 C-5.66 11.01 -6.32 10.02 -7 9 C-6.1875 7.0625 -6.1875 7.0625 -5 5 C-4.01 4.67 -3.02 4.34 -2 4 C-2 3.01 -2 2.02 -2 1 C-1.34 0.67 -0.68 0.34 0 0 Z " fill="#CC8F2B" transform="translate(323,284)"/>
<path d="M0 0 C1.98 0 3.96 0 6 0 C6.33 0.99 6.66 1.98 7 3 C10.3 2.34 13.6 1.68 17 1 C17.33 1.66 17.66 2.32 18 3 C13.54268862 5.36794667 9.76156726 5.37279056 5 4 C2 1.9375 2 1.9375 0 0 Z " fill="#8F4635" transform="translate(319,384)"/>
<path d="M0 0 C0.66 0 1.32 0 2 0 C2.33 0.99 2.66 1.98 3 3 C2.505 3.45375 2.01 3.9075 1.5 4.375 C-0.22609337 5.87635519 -0.22609337 5.87635519 0 8 C-1.32 8.33 -2.64 8.66 -4 9 C-4 8.34 -4 7.68 -4 7 C-4.66 7 -5.32 7 -6 7 C-5.814375 6.38125 -5.62875 5.7625 -5.4375 5.125 C-4.76313824 2.95839822 -4.76313824 2.95839822 -6 1 C-4.02 1.99 -4.02 1.99 -2 3 C-1.34 2.01 -0.68 1.02 0 0 Z " fill="#05B9BE" transform="translate(193,281)"/>
<path d="M0 0 C2.97 0 5.94 0 9 0 C9 0.33 9 0.66 9 1 C6.36 1 3.72 1 1 1 C1 3.31 1 5.62 1 8 C6.445 7.01 6.445 7.01 12 6 C12.33 7.65 12.66 9.3 13 11 C8.71 10.34 4.42 9.68 0 9 C0 6.03 0 3.06 0 0 Z " fill="#14ADB1" transform="translate(194,236)"/>
<path d="M0 0 C2.31 0 4.62 0 7 0 C7 0.99 7 1.98 7 3 C5.35 3 3.7 3 2 3 C1.67 3.66 1.34 4.32 1 5 C0.01 5.33 -0.98 5.66 -2 6 C-2.33 8.31 -2.66 10.62 -3 13 C-3.33 13 -3.66 13 -4 13 C-4 10.03 -4 7.06 -4 4 C-2.68 3.34 -1.36 2.68 0 2 C0 1.34 0 0.68 0 0 Z " fill="#A87B2F" transform="translate(272,227)"/>
<path d="M0 0 C0.66 0.99 1.32 1.98 2 3 C0.86637145 7.53451419 -2.04814605 11.43103373 -5 15 C-5.33 15 -5.66 15 -6 15 C-6.125 9.25 -6.125 9.25 -5 7 C-4.34 7 -3.68 7 -3 7 C-2.67 6.34 -2.34 5.68 -2 5 C-1.34 5 -0.68 5 0 5 C0 3.35 0 1.7 0 0 Z " fill="#D05D43" transform="translate(361,310)"/>
<path d="M0 0 C0.66 0 1.32 0 2 0 C2.28809717 5.56987857 2.20219683 9.19670476 -1 14 C-3.1875 15.375 -3.1875 15.375 -5 16 C-4.67 15.21625 -4.34 14.4325 -4 13.625 C-2.88133489 11.15667503 -2.88133489 11.15667503 -3 9 C-2.01 9 -1.02 9 0 9 C0 6.03 0 3.06 0 0 Z " fill="#B05846" transform="translate(351,121)"/>
<path d="M0 0 C0.33 0.66 0.66 1.32 1 2 C0.34 2 -0.32 2 -1 2 C-1.28875 2.5775 -1.5775 3.155 -1.875 3.75 C-2.55240377 5.10480754 -3.26223786 6.4450097 -4.03125 7.75 C-5.26492323 10.61530556 -5.42241644 13.14371871 -5.625 16.25 C-5.69976562 17.32765625 -5.77453125 18.4053125 -5.8515625 19.515625 C-5.90054687 20.33546875 -5.94953125 21.1553125 -6 22 C-6.33 22 -6.66 22 -7 22 C-7.05411124 19.58303128 -7.09372278 17.16728213 -7.125 14.75 C-7.14175781 14.06808594 -7.15851563 13.38617188 -7.17578125 12.68359375 C-7.21191625 8.96168842 -7.1974489 6.08830656 -5 3 C-2.375 1.25 -2.375 1.25 0 0 Z " fill="#883E30" transform="translate(327,323)"/>
<path d="M0 0 C0.33 0 0.66 0 1 0 C1.33 1.65 1.66 3.3 2 5 C2.33 5 2.66 5 3 5 C3.19402245 9.17148265 3.01430083 12.28944583 1 16 C0.01 16.33 -0.98 16.66 -2 17 C-1.34 11.39 -0.68 5.78 0 0 Z " fill="#A97424" transform="translate(322,248)"/>
<path d="M0 0 C0.45375 0.495 0.9075 0.99 1.375 1.5 C2.87635519 3.22609337 2.87635519 3.22609337 5 3 C5.33 4.32 5.66 5.64 6 7 C6.99 7 7.98 7 9 7 C9 7.66 9 8.32 9 9 C6.09433826 9.24213848 4.33270547 9.16185671 1.6875 7.875 C0 6 0 6 -0.25 2.8125 C-0.1675 1.884375 -0.085 0.95625 0 0 Z " fill="#C68D2D" transform="translate(269,235)"/>
<path d="M0 0 C0.33 0.66 0.66 1.32 1 2 C1.99 2.33 2.98 2.66 4 3 C5.1875 6.0625 5.1875 6.0625 6 9 C6.99 9 7.98 9 9 9 C9 11.64 9 14.28 9 17 C4.97906579 12.38337183 0 6.32944487 0 0 Z " fill="#CC5F47" transform="translate(131,304)"/>
<path d="M0 0 C0.33 0.66 0.66 1.32 1 2 C1.66 2.33 2.32 2.66 3 3 C-3.75 7 -3.75 7 -6 7 C-6 5.35 -6 3.7 -6 2 C-4.02 1.34 -2.04 0.68 0 0 Z " fill="#0CA0A8" transform="translate(234,273)"/>
<path d="M0 0 C0.66 0 1.32 0 2 0 C1.48914188 6.43681228 0.27057103 11.95942424 -2 18 C-2.33 18 -2.66 18 -3 18 C-2.67 14.37 -2.34 10.74 -2 7 C-1.34 7 -0.68 7 0 7 C0 4.69 0 2.38 0 0 Z " fill="#B5842F" transform="translate(332,259)"/>
<path d="M0 0 C0.99 0.33 1.98 0.66 3 1 C2.690625 1.598125 2.38125 2.19625 2.0625 2.8125 C0.89790296 5.08956772 0.89790296 5.08956772 0 8 C-0.99 8 -1.98 8 -3 8 C-3.66 7.01 -4.32 6.02 -5 5 C-4.67 4.01 -4.34 3.02 -4 2 C-2.68 2 -1.36 2 0 2 C0 1.34 0 0.68 0 0 Z " fill="#D28C26" transform="translate(296,221)"/>
<path d="M0 0 C0 0.66 0 1.32 0 2 C-0.99 2.33 -1.98 2.66 -3 3 C-0.69 3 1.62 3 4 3 C4 3.33 4 3.66 4 4 C-0.29 4 -4.58 4 -9 4 C-6.51772755 -0.9645449 -5.05599827 -1.56910291 0 0 Z " fill="#04BDC4" transform="translate(203,203)"/>
<path d="M0 0 C2.375 -0.125 2.375 -0.125 5 0 C7 2 7 2 7 6 C4.69 5.67 2.38 5.34 0 5 C0 3.35 0 1.7 0 0 Z " fill="#F39C19" transform="translate(303,190)"/>
<path d="M0 0 C0.33 0.66 0.66 1.32 1 2 C1.99 2.33 2.98 2.66 4 3 C4.94921875 5.28515625 4.94921875 5.28515625 5.6875 8.0625 C5.93886719 8.98160156 6.19023437 9.90070313 6.44921875 10.84765625 C6.63097656 11.55792969 6.81273437 12.26820313 7 13 C5.35 12.67 3.7 12.34 2 12 C1.67 11.01 1.34 10.02 1 9 C1.66 9 2.32 9 3 9 C2.505 8.071875 2.01 7.14375 1.5 6.1875 C0 3 0 3 0 0 Z " fill="#BC5442" transform="translate(170,134)"/>
<path d="M0 0 C0.99 0.33 1.98 0.66 3 1 C2.67 1.99 2.34 2.98 2 4 C3.32 4.33 4.64 4.66 6 5 C6 5.66 6 6.32 6 7 C2.7 6.34 -0.6 5.68 -4 5 C-4.33 3.68 -4.66 2.36 -5 1 C-4.34 1 -3.68 1 -3 1 C-3 1.66 -3 2.32 -3 3 C-2.01 3 -1.02 3 0 3 C0 2.01 0 1.02 0 0 Z " fill="#0F989B" transform="translate(208,296)"/>
<path d="M0 0 C0.33 1.32 0.66 2.64 1 4 C0.34 4 -0.32 4 -1 4 C-0.67 4.99 -0.34 5.98 0 7 C-1.28965176 8.37562854 -2.62689293 9.70766393 -4 11 C-4.66 11 -5.32 11 -6 11 C-4.125 5.25 -4.125 5.25 -3 3 C-2.34 3 -1.68 3 -1 3 C-0.67 2.01 -0.34 1.02 0 0 Z " fill="#119195" transform="translate(200,191)"/>
<path d="M0 0 C1.485 0.99 1.485 0.99 3 2 C2.67 3.65 2.34 5.3 2 7 C2.66 7 3.32 7 4 7 C4.33 8.65 4.66 10.3 5 12 C1.73427415 9.82284943 0.20274779 8.72409925 -0.875 4.875 C-1 2 -1 2 0 0 Z " fill="#B6822F" transform="translate(301,188)"/>
<path d="M0 0 C2.97 0.495 2.97 0.495 6 1 C6 1.66 6 2.32 6 3 C7.32 3.33 8.64 3.66 10 4 C10 4.66 10 5.32 10 6 C10.66 6 11.32 6 12 6 C12.33 6.99 12.66 7.98 13 9 C7.97290493 7.42903279 3.97133531 4.38006951 0 1 C0 0.67 0 0.34 0 0 Z " fill="#B65544" transform="translate(291,364)"/>
<path d="M0 0 C2.27678571 8.03571429 2.27678571 8.03571429 1 12 C-2 6.375 -2 6.375 -2 3 C-3.65 2.67 -5.3 2.34 -7 2 C-7 1.67 -7 1.34 -7 1 C-1.125 0 -1.125 0 0 0 Z " fill="#AE533F" transform="translate(160,136)"/>
<path d="M0 0 C0.99 0 1.98 0 3 0 C3 0.66 3 1.32 3 2 C3.66 2 4.32 2 5 2 C5.33 7.28 5.66 12.56 6 18 C5.34 18.33 4.68 18.66 4 19 C3.67 14.05 3.34 9.1 3 4 C2.34 4 1.68 4 1 4 C0.67 2.68 0.34 1.36 0 0 Z " fill="#1A8690" transform="translate(262,242)"/>
<path d="M0 0 C5.78450072 -0.34707004 9.96563531 -0.27233705 15 3 C15.33 3.66 15.66 4.32 16 5 C12.34056353 4.31092878 8.77558041 3.43178734 5.1875 2.4375 C4.21167969 2.16808594 3.23585938 1.89867187 2.23046875 1.62109375 C1.49441406 1.41613281 0.75835937 1.21117187 0 1 C0 0.67 0 0.34 0 0 Z " fill="#9D4939" transform="translate(302,163)"/>
<path d="M0 0 C0.33 0 0.66 0 1 0 C2.19088986 5.38027025 3.2919519 10.45291384 3 16 C0.05769623 11.58654435 -1.14218048 8.46919832 -0.625 3.125 C-0.41875 2.09375 -0.2125 1.0625 0 0 Z " fill="#AE4D3E" transform="translate(128,288)"/>
<path d="M0 0 C0.66 0 1.32 0 2 0 C1.32116957 3.11547441 0.25893098 5.85137721 -1.0625 8.75 C-1.60583984 9.94882813 -1.60583984 9.94882813 -2.16015625 11.171875 C-2.43730469 11.77515625 -2.71445313 12.3784375 -3 13 C-3.33 13 -3.66 13 -4 13 C-4 10.69 -4 8.38 -4 6 C-3.34 6 -2.68 6 -2 6 C-2 5.01 -2 4.02 -2 3 C-1.34 3 -0.68 3 0 3 C0 2.01 0 1.02 0 0 Z " fill="#B3513C" transform="translate(153,190)"/>
<path d="M0 0 C0.33 0.66 0.66 1.32 1 2 C0.273668 3.94789035 -0.45777551 5.8942498 -1.23046875 7.82421875 C-2.31053545 10.8780114 -2.6651047 13.78500511 -3 17 C-3.33 17 -3.66 17 -4 17 C-4.63019694 6.02407002 -4.63019694 6.02407002 -2 1.75 C-1.01 0.88375 -1.01 0.88375 0 0 Z " fill="#9D4D3C" transform="translate(328,114)"/>
<path d="M0 0 C2.64 0 5.28 0 8 0 C8 0.66 8 1.32 8 2 C8.66 2 9.32 2 10 2 C9.67 2.66 9.34 3.32 9 4 C8.34 4 7.68 4 7 4 C7 3.34 7 2.68 7 2 C4.03 2.66 1.06 3.32 -2 4 C-1.34 2.68 -0.68 1.36 0 0 Z " fill="#13787F" transform="translate(175,242)"/>
<path d="M0 0 C0.66 0.33 1.32 0.66 2 1 C2.37211538 7.57403846 2.37211538 7.57403846 0.48828125 9.73046875 C-0.00285156 10.14941406 -0.49398438 10.56835938 -1 11 C-1.02688151 9.35425434 -1.04634123 7.70838587 -1.0625 6.0625 C-1.07410156 5.14597656 -1.08570313 4.22945312 -1.09765625 3.28515625 C-1 1 -1 1 0 0 Z " fill="#AC7D2F" transform="translate(282,231)"/>
<path d="M0 0 C0.66 0 1.32 0 2 0 C2 0.66 2 1.32 2 2 C2.99 2.33 3.98 2.66 5 3 C7.04108797 6.00791911 7.19878036 8.42195344 7 12 C4.06185997 10.53092999 3.6713774 8.40552194 2.375 5.4375 C1.92898438 4.42558594 1.48296875 3.41367188 1.0234375 2.37109375 C0.68570312 1.58863281 0.34796875 0.80617187 0 0 Z " fill="#B05642" transform="translate(343,190)"/>
<path d="M0 0 C0 0.66 0 1.32 0 2 C-4.95 2.66 -9.9 3.32 -15 4 C-14.67 3.34 -14.34 2.68 -14 2 C-9.17574056 0.52819204 -5.07522852 -0.25376143 0 0 Z " fill="#18757E" transform="translate(223,182)"/>
<path d="M0 0 C2.78633115 4.17949673 4 6.93375326 4 12 C3.34 12 2.68 12 2 12 C1.47026689 10.37787941 0.95146893 8.75218416 0.4375 7.125 C0.14746094 6.22007812 -0.14257812 5.31515625 -0.44140625 4.3828125 C-1 2 -1 2 0 0 Z " fill="#B1802E" transform="translate(329,212)"/>
<path d="M0 0 C0.33 1.32 0.66 2.64 1 4 C1.66 4 2.32 4 3 4 C5 7 5 7 4.625 9.1875 C4.41875 9.785625 4.2125 10.38375 4 11 C3.34 9.35 2.68 7.7 2 6 C1.34 6 0.68 6 0 6 C-1.625 3.5 -1.625 3.5 -3 1 C-2.01 0.67 -1.02 0.34 0 0 Z " fill="#B85643" transform="translate(338,179)"/>
<path d="M0 0 C3.57967992 1.65215996 6.77982952 3.73124352 10 6 C10 6.33 10 6.66 10 7 C8.35 7 6.7 7 5 7 C4.34 5.68 3.68 4.36 3 3 C2.34 3 1.68 3 1 3 C0.67 2.01 0.34 1.02 0 0 Z " fill="#AC4D3A" transform="translate(293,342)"/>
<path d="M0 0 C0.33 0.99 0.66 1.98 1 3 C0.67 3.66 0.34 4.32 0 5 C-0.66 5 -1.32 5 -2 5 C-2.33 5.99 -2.66 6.98 -3 8 C-3.33 8 -3.66 8 -4 8 C-4 6.02 -4 4.04 -4 2 C-2.68 1.34 -1.36 0.68 0 0 Z " fill="#0EA2AB" transform="translate(199,259)"/>
<path d="M0 0 C0.99 0.33 1.98 0.66 3 1 C3.75 2.9375 3.75 2.9375 4 5 C3.67 5.66 3.34 6.32 3 7 C0.525 6.01 0.525 6.01 -2 5 C-1.34 3.35 -0.68 1.7 0 0 Z " fill="#DA9426" transform="translate(332,252)"/>
<path d="M0 0 C0.66 0 1.32 0 2 0 C3.33583899 4.84241633 4.25328119 8.93437617 4 14 C3.67 14 3.34 14 3 14 C2.690625 12.865625 2.38125 11.73125 2.0625 10.5625 C1.37075469 7.21224901 1.37075469 7.21224901 0 6 C-0.04080783 4.00041636 -0.04254356 1.99954746 0 0 Z " fill="#9A4735" transform="translate(369,199)"/>
<path d="M0 0 C1.88391785 3.26545761 2.49287967 6.28111761 3 10 C1.68 9.34 0.36 8.68 -1 8 C-1.04241723 5.66705225 -1.04092937 3.33297433 -1 1 C-0.67 0.67 -0.34 0.34 0 0 Z " fill="#159095" transform="translate(193,318)"/>
<path d="M0 0 C0.66 0.33 1.32 0.66 2 1 C0.625 3 0.625 3 -1 5 C-1.66 5 -2.32 5 -3 5 C-3 5.99 -3 6.98 -3 8 C-4.65 8 -6.3 8 -8 8 C-6.71034824 6.62437146 -5.37310707 5.29233607 -4 4 C-3.34 4 -2.68 4 -2 4 C-2 3.34 -2 2.68 -2 2 C-1.34 2 -0.68 2 0 2 C0 1.34 0 0.68 0 0 Z " fill="#A44C39" transform="translate(336,315)"/>
<path d="M0 0 C1.65 0 3.3 0 5 0 C5 0.66 5 1.32 5 2 C3 4 3 4 0 6 C-1 3 -1 3 0 0 Z " fill="#01B9BF" transform="translate(256,274)"/>
<path d="M0 0 C0.99 0 1.98 0 3 0 C2.67 1.65 2.34 3.3 2 5 C0.68 5.33 -0.64 5.66 -2 6 C-2 3 -2 3 0 0 Z " fill="#D69125" transform="translate(331,224)"/>
<path d="M0 0 C2.31 0 4.62 0 7 0 C7.33 1.65 7.66 3.3 8 5 C2.25 3.125 2.25 3.125 0 2 C0 1.34 0 0.68 0 0 Z " fill="#EC9D2E" transform="translate(302,187)"/>
<path d="M0 0 C1.32 0.99 2.64 1.98 4 3 C2.625 5 2.625 5 1 7 C0.34 7 -0.32 7 -1 7 C-1.33 7.66 -1.66 8.32 -2 9 C-1.125 1.125 -1.125 1.125 0 0 Z " fill="#C9583F" transform="translate(160,178)"/>
<path d="M0 0 C2 3.75 2 3.75 2 6 C0.35 6.33 -1.3 6.66 -3 7 C-2.25 2.25 -2.25 2.25 0 0 Z " fill="#CF593D" transform="translate(145,169)"/>
<path d="M0 0 C0 0.66 0 1.32 0 2 C-7.42857143 2.28571429 -7.42857143 2.28571429 -11 0 C-3.57142857 -1.28571429 -3.57142857 -1.28571429 0 0 Z " fill="#C15942" transform="translate(198,143)"/>
<path d="M0 0 C0.33 0 0.66 0 1 0 C1 2.97 1 5.94 1 9 C-0.32 9.33 -1.64 9.66 -3 10 C-3 8.35 -3 6.7 -3 5 C-2.01 5.495 -2.01 5.495 -1 6 C-0.67 4.02 -0.34 2.04 0 0 Z " fill="#AD4836" transform="translate(322,355)"/>
<path d="M0 0 C1.70884005 1.62339805 3.37446717 3.29319053 5 5 C5 5.66 5 6.32 5 7 C5.66 7 6.32 7 7 7 C7 7.66 7 8.32 7 9 C6.01 9 5.02 9 4 9 C3.67 8.01 3.34 7.02 3 6 C2.01 5.34 1.02 4.68 0 4 C0 2.68 0 1.36 0 0 Z " fill="#B5543F" transform="translate(155,308)"/>
<path d="M0 0 C2 3 2 3 2 5 C0.625 6.625 0.625 6.625 -1 8 C-1.66 8 -2.32 8 -3 8 C-3 8.66 -3 9.32 -3 10 C-3.66 9.67 -4.32 9.34 -5 9 C-3.35 6.03 -1.7 3.06 0 0 Z " fill="#A87C2D" transform="translate(315,274)"/>
<path d="M0 0 C2 4 2 4 2 6 C1.34 6 0.68 6 0 6 C0 7.65 0 9.3 0 11 C-0.99 10.34 -1.98 9.68 -3 9 C-2.01 6.03 -1.02 3.06 0 0 Z " fill="#A57924" transform="translate(295,253)"/>
<path d="M0 0 C2.29633824 3.44450737 2.54016485 5.93812283 3 10 C2.34 10 1.68 10 1 10 C0.63883954 8.5225254 0.28624952 7.04295325 -0.0625 5.5625 C-0.25972656 4.73878906 -0.45695312 3.91507813 -0.66015625 3.06640625 C-0.82837891 2.04353516 -0.82837891 2.04353516 -1 1 C-0.67 0.67 -0.34 0.34 0 0 Z " fill="#A87932" transform="translate(320,221)"/>
<path d="M0 0 C0.92538169 3.70152678 1.08174162 4.63458162 0 8 C-0.66 8 -1.32 8 -2 8 C-2 8.66 -2 9.32 -2 10 C-2.66 9.67 -3.32 9.34 -4 9 C-2.68 6.03 -1.36 3.06 0 0 Z " fill="#B75543" transform="translate(327,134)"/>
<path d="M0 0 C0.99 0.33 1.98 0.66 3 1 C3 1.66 3 2.32 3 3 C5.475 3.99 5.475 3.99 8 5 C8 5.99 8 6.98 8 8 C7.67 7.34 7.34 6.68 7 6 C5.68 6 4.36 6 3 6 C2.67 4.68 2.34 3.36 2 2 C1.34 2 0.68 2 0 2 C0 1.34 0 0.68 0 0 Z " fill="#AB4F40" transform="translate(309,353)"/>
<path d="M0 0 C0.66 0 1.32 0 2 0 C1.5206753 4.31392226 0.2542015 6.16569547 -3 9 C-3 7.35 -3 5.7 -3 4 C-2.01 4 -1.02 4 0 4 C0 2.68 0 1.36 0 0 Z " fill="#108288" transform="translate(243,263)"/>
<path d="M0 0 C0.99 0.33 1.98 0.66 3 1 C3 4.3 3 7.6 3 11 C2.67 11 2.34 11 2 11 C1.34 7.37 0.68 3.74 0 0 Z " fill="#976624" transform="translate(294,229)"/>
<path d="M0 0 C0.33 0.99 0.66 1.98 1 3 C1.66 3 2.32 3 3 3 C2.34 4.32 1.68 5.64 1 7 C0.34 6.67 -0.32 6.34 -1 6 C-1.625 3.4375 -1.625 3.4375 -2 1 C-1.34 0.67 -0.68 0.34 0 0 Z " fill="#E9A02B" transform="translate(291,217)"/>
<path d="M0 0 C0.33 0 0.66 0 1 0 C1 1.98 1 3.96 1 6 C0.01 6.495 0.01 6.495 -1 7 C-1.66 6.01 -2.32 5.02 -3 4 C-5.56282742 3.27034634 -5.56282742 3.27034634 -8 3 C-8 2.67 -8 2.34 -8 2 C-2.25 1.875 -2.25 1.875 0 3 C0 2.01 0 1.02 0 0 Z " fill="#D35B41" transform="translate(322,144)"/>
<path d="M0 0 C1.98 1.65 3.96 3.3 6 5 C5 7 5 7 3 8 C3 6.68 3 5.36 3 4 C2.01 4 1.02 4 0 4 C0 2.68 0 1.36 0 0 Z " fill="#A17124" transform="translate(313,189)"/>
<path d="M0 0 C0.66 0 1.32 0 2 0 C1.67 1.98 1.34 3.96 1 6 C0.34 6 -0.32 6 -1 6 C-1 5.34 -1 4.68 -1 4 C-1.66 4 -2.32 4 -3 4 C-3 3.34 -3 2.68 -3 2 C-2.01 2 -1.02 2 0 2 C0 1.34 0 0.68 0 0 Z " fill="#F26547" transform="translate(346,186)"/>
<path d="M0 0 C-3.96 1.98 -3.96 1.98 -8 4 C-8 3.01 -8 2.02 -8 1 C-4.59449725 -1.06762667 -4.18836538 -1.04709135 0 0 Z " fill="#AD5141" transform="translate(181,169)"/>
<path d="M0 0 C1.98 0 3.96 0 6 0 C6.33 1.32 6.66 2.64 7 4 C4.08482708 2.92598892 2.22189824 2.22189824 0 0 Z " fill="#B4543D" transform="translate(319,384)"/>
<path d="M0 0 C2.31 0.33 4.62 0.66 7 1 C7 2.32 7 3.64 7 5 C6.34 5 5.68 5 5 5 C5 4.34 5 3.68 5 3 C2.525 2.01 2.525 2.01 0 1 C0 0.67 0 0.34 0 0 Z " fill="#AE4E38" transform="translate(308,376)"/>
<path d="M0 0 C0.66 1.32 1.32 2.64 2 4 C1.01 4.495 1.01 4.495 0 5 C-1.65 3.68 -3.3 2.36 -5 1 C-3 0 -3 0 0 0 Z " fill="#BD5743" transform="translate(164,340)"/>
<path d="M0 0 C4.455 0.99 4.455 0.99 9 2 C8.01 2.66 7.02 3.32 6 4 C2.8125 3.125 2.8125 3.125 0 2 C0 1.34 0 0.68 0 0 Z " fill="#A6533D" transform="translate(186,333)"/>
<path d="M0 0 C0.99 0 1.98 0 3 0 C3 1.65 3 3.3 3 5 C1.02 5 -0.96 5 -3 5 C-2.01 4.34 -1.02 3.68 0 3 C0 2.01 0 1.02 0 0 Z " fill="#12A8AA" transform="translate(243,323)"/>
<path d="M0 0 C0.33 0.66 0.66 1.32 1 2 C1.66 2.33 2.32 2.66 3 3 C5 4 5 4 6 6 C4.35 6 2.7 6 1 6 C0.67 4.02 0.34 2.04 0 0 Z " fill="#9D4935" transform="translate(163,317)"/>
<path d="M0 0 C0.33 0.66 0.66 1.32 1 2 C1.99 2.33 2.98 2.66 4 3 C4.33 5.64 4.66 8.28 5 11 C0 3.5 0 3.5 0 0 Z " fill="#A95040" transform="translate(131,304)"/>
<path d="M0 0 C1.32 0.33 2.64 0.66 4 1 C3.25 5.75 3.25 5.75 1 8 C0.67 5.36 0.34 2.72 0 0 Z " fill="#CF8E2D" transform="translate(298,269)"/>
<path d="M0 0 C0 0.33 0 0.66 0 1 C-1.98 1 -3.96 1 -6 1 C-6 1.66 -6 2.32 -6 3 C-7.65 3 -9.3 3 -11 3 C-8.21756596 -1.17365106 -4.53441502 -0.22300402 0 0 Z " fill="#C15E44" transform="translate(208,160)"/>
<path d="M0 0 C1.5 1.0625 1.5 1.0625 3 3 C3.1875 6.6875 3.1875 6.6875 3 10 C0.70366176 6.55549263 0.45983515 4.06187717 0 0 Z " fill="#BF614D" transform="translate(172,116)"/>
</svg>
